<?xml version="1.0" standalone="no"?>
<!DOCTYPE svg PUBLIC "-//W3C//DTD SVG 20010904//EN"
 "http://www.w3.org/TR/2001/REC-SVG-20010904/DTD/svg10.dtd">
<svg version="1.0" xmlns="http://www.w3.org/2000/svg"
 width="552.000000pt" height="552.000000pt" viewBox="0 0 552.000000 552.000000"
 preserveAspectRatio="xMidYMid meet">
<metadata>
Created by potrace 1.14, written by Peter Selinger 2001-2017
</metadata>
<g transform="translate(0.000000,552.000000) scale(0.100000,-0.100000)"
fill="#000000" stroke="none">
<path d="M2700 5469 c-88 -106 -73 -102 -139 -31 -31 34 -62 62 -69 62 -6 0
-30 -31 -54 -70 -24 -38 -47 -70 -53 -70 -5 0 -32 21 -60 45 -84 76 -80 76
-122 -12 -21 -43 -39 -80 -41 -83 -2 -2 -11 1 -20 8 -9 7 -24 15 -32 19 -8 4
-19 11 -25 15 -5 5 -23 20 -40 33 -16 14 -33 25 -37 25 -3 0 -20 -35 -36 -77
-17 -43 -35 -79 -41 -81 -7 -2 -43 15 -82 39 -82 49 -78 51 -111 -58 -12 -40
-26 -73 -31 -73 -5 0 -43 16 -84 36 -41 20 -77 33 -80 30 -8 -8 -10 -14 -27
-119 -5 -26 -11 -49 -15 -51 -6 -4 -119 36 -153 54 -22 13 -28 1 -34 -63 -9
-97 -10 -106 -16 -112 -3 -4 -43 3 -88 15 -44 13 -83 20 -87 17 -3 -3 -5 -45
-5 -92 l-1 -86 -46 5 c-25 3 -65 10 -89 15 -23 4 -44 6 -46 2 -4 -5 0 -123 5
-147 6 -33 -1 -35 -83 -29 -45 4 -86 9 -90 11 -4 3 -9 -1 -9 -8 -2 -19 -3 -14
18 -140 l6 -38 -90 0 c-49 0 -92 -3 -96 -6 -3 -3 -2 -16 3 -28 8 -23 18 -65
27 -123 5 -32 4 -33 -33 -34 -72 -2 -137 -8 -142 -13 -5 -6 38 -135 52 -154
12 -17 -3 -31 -40 -36 -16 -3 -48 -9 -71 -14 -23 -5 -44 -7 -47 -4 -3 2 -8 -2
-11 -10 -3 -8 10 -48 30 -89 19 -40 32 -76 27 -81 -5 -5 -42 -17 -83 -29 -41
-11 -77 -23 -81 -27 -3 -4 13 -41 37 -82 24 -41 42 -77 39 -81 -2 -4 -15 -10
-28 -13 -14 -3 -38 -11 -53 -18 -28 -11 -37 -14 -50 -17 -5 -1 -15 -5 -23 -11
-12 -7 -7 -19 25 -67 22 -32 43 -59 48 -61 4 -2 7 -11 7 -20 0 -11 -28 -31
-80 -56 l-79 -39 19 -26 c10 -14 35 -44 54 -66 20 -22 36 -44 36 -50 0 -5 -34
-30 -75 -53 -41 -24 -75 -46 -75 -49 0 -2 27 -32 60 -66 33 -34 60 -65 60 -68
0 -3 -30 -27 -67 -54 -38 -27 -70 -51 -73 -53 -3 -2 6 -13 20 -23 14 -11 43
-34 64 -52 21 -18 44 -35 50 -40 7 -5 -14 -31 -58 -72 -60 -55 -68 -66 -57
-79 8 -9 20 -16 27 -16 8 0 14 -4 14 -8 0 -4 15 -16 33 -27 62 -36 64 -42 25
-83 -73 -76 -88 -96 -81 -103 5 -4 35 -22 68 -39 94 -51 93 -47 30 -124 -30
-37 -53 -71 -51 -75 3 -4 39 -22 80 -41 42 -18 76 -36 76 -39 0 -4 -20 -38
-45 -76 -25 -39 -45 -75 -45 -81 0 -5 32 -20 72 -33 40 -12 78 -27 84 -32 9
-7 0 -30 -32 -86 -30 -53 -40 -79 -32 -84 6 -4 47 -15 90 -25 79 -18 87 -26
69 -62 -25 -50 -51 -114 -51 -126 0 -9 17 -16 48 -21 26 -3 63 -9 82 -12 40
-6 52 -19 39 -42 -12 -21 -49 -144 -45 -149 2 -2 28 -5 57 -7 93 -8 118 -11
123 -16 3 -3 1 -21 -4 -40 -5 -19 -12 -50 -15 -69 -3 -19 -8 -43 -11 -52 -5
-16 4 -18 90 -18 l95 0 -5 -47 c-3 -27 -9 -65 -14 -86 -5 -22 -4 -40 2 -43 8
-5 48 -2 146 12 28 5 32 2 33 -18 1 -26 -1 -78 -6 -126 -1 -18 1 -35 5 -37 5
-3 45 2 90 11 44 9 83 14 87 11 7 -7 12 -55 12 -125 l1 -53 33 5 c17 4 57 14
87 25 64 21 67 20 76 -60 9 -83 12 -104 13 -106 2 -4 145 50 157 59 16 11 31
-10 37 -52 4 -19 10 -52 15 -72 5 -20 7 -39 4 -42 -18 -19 37 -1 91 29 68 37
97 44 97 21 0 -14 36 -131 45 -146 5 -9 137 67 143 82 7 15 21 8 28 -14 15
-47 65 -148 74 -148 5 0 13 6 17 13 4 7 24 24 43 37 19 14 44 32 54 42 10 9
22 16 25 14 3 -3 24 -38 46 -80 22 -42 43 -76 46 -76 4 0 32 25 64 55 32 30
63 55 69 55 6 0 26 -24 44 -53 64 -103 54 -101 125 -23 l63 70 59 -74 58 -73
21 25 c12 14 37 46 56 71 19 26 39 46 44 47 4 0 35 -29 69 -65 67 -74 57 -75
117 15 16 25 30 51 30 58 0 29 35 10 117 -65 19 -18 38 -33 42 -33 3 0 22 35
41 76 19 42 38 78 43 81 4 3 40 -18 79 -47 39 -28 74 -48 78 -43 4 4 20 41 35
81 16 39 33 72 38 72 6 0 41 -18 79 -40 39 -22 73 -40 77 -40 3 0 14 28 23 63
9 34 21 74 26 88 l11 27 76 -39 c42 -22 80 -39 85 -39 5 0 12 15 15 33 11 56
12 61 20 100 4 20 10 39 14 41 3 2 40 -9 81 -25 90 -35 100 -36 100 -6 1 52
13 143 20 150 4 4 41 -1 83 -13 42 -11 81 -20 86 -20 5 0 10 26 11 58 4 140
-2 125 44 119 23 -3 52 -8 66 -11 14 -2 36 -6 50 -8 28 -3 28 -2 19 122 l-4
55 65 0 c36 1 75 -2 87 -7 20 -6 50 12 38 23 -2 3 -6 18 -9 34 -3 17 -10 51
-14 78 l-9 47 93 0 c69 0 94 3 94 13 0 6 -9 47 -19 90 -10 42 -16 79 -12 81 3
2 44 7 91 11 47 4 87 9 89 10 2 2 -8 34 -22 72 -42 110 -44 104 53 122 98 19
96 14 49 118 -16 36 -27 68 -24 71 9 9 118 42 138 42 27 0 31 25 10 62 -10 18
-20 35 -23 38 -3 3 -13 20 -24 39 -18 33 -14 46 17 52 4 1 10 2 15 3 17 4 108
40 115 46 4 3 -15 39 -43 78 -27 39 -50 74 -50 77 0 3 33 21 74 40 41 19 77
39 80 44 4 5 -18 38 -48 72 -29 35 -52 68 -49 74 2 7 18 19 36 29 72 38 107
63 107 75 0 3 -22 33 -50 66 -27 33 -50 65 -50 72 0 7 10 18 23 25 31 18 116
82 116 88 0 3 -20 21 -46 40 -25 19 -57 46 -71 59 l-25 25 59 53 c32 29 62 53
67 53 4 0 7 6 7 14 0 7 -31 34 -70 60 -38 25 -70 49 -70 54 0 4 27 34 60 66
39 39 56 63 51 70 -5 6 -33 24 -63 39 -100 53 -98 47 -34 124 31 37 56 70 56
73 0 3 -34 21 -75 40 -42 18 -78 37 -81 42 -3 5 1 17 10 27 9 10 16 20 16 24
0 3 14 26 30 50 17 25 30 49 30 54 0 5 -38 21 -85 37 l-85 27 44 84 c45 82 45
83 23 90 -12 4 -24 8 -27 9 -3 1 -33 8 -67 15 -36 8 -63 19 -63 26 0 7 15 46
34 88 l35 75 -27 7 c-15 4 -49 9 -77 12 -66 7 -90 20 -74 39 6 8 9 14 5 14 -4
0 0 14 9 30 9 17 13 30 9 30 -4 0 -1 7 6 15 7 8 9 15 6 15 -4 0 -2 9 5 21 6
12 7 25 2 30 -4 4 -44 9 -88 10 -44 1 -83 4 -86 6 -4 1 -2 22 3 45 5 24 11 52
14 63 2 11 6 32 10 48 6 31 13 29 -104 29 l-83 -1 6 32 c4 27 16 110 17 127 2
27 -8 30 -68 16 -21 -4 -89 -9 -111 -7 -6 1 -9 9 -7 19 2 9 5 50 7 90 l4 74
-50 -6 c-27 -4 -53 -9 -57 -11 -15 -10 -80 -16 -80 -8 -3 61 -12 161 -16 172
-3 11 -7 11 -19 1 -8 -7 -15 -10 -15 -7 0 3 -31 -5 -70 -18 -38 -13 -70 -21
-71 -17 0 4 -3 16 -5 27 -3 11 -6 34 -8 50 -2 17 -7 47 -11 68 -8 43 -9 43
-104 1 -29 -13 -59 -24 -66 -24 -12 0 -23 31 -45 128 l-12 52 -79 -42 c-79
-42 -96 -43 -103 -7 -6 35 -39 139 -44 139 -6 0 -76 -42 -82 -50 -3 -4 -20
-15 -37 -25 -34 -20 -51 -15 -57 16 -6 28 -54 139 -60 139 -4 0 -14 -7 -23
-16 -10 -8 -41 -33 -70 -55 l-52 -40 -23 43 c-12 24 -31 60 -41 81 -11 20 -22
37 -26 37 -4 0 -34 -25 -66 -55 -32 -30 -63 -55 -69 -55 -6 0 -30 32 -54 70
-24 39 -46 70 -50 70 -4 0 -31 -27 -61 -60 -30 -33 -62 -60 -71 -60 -8 0 -23
12 -33 28 -9 15 -31 44 -50 66 l-33 39 -44 -54z"/>
</g>
</svg>
