<?xml version="1.0" encoding="UTF-8" standalone="no"?>
<!-- Generator: Adobe Illustrator 21.1.0, SVG Export Plug-In . SVG Version: 6.00 Build 0)  -->

<svg
   version="1.1"
   id="Camada_1"
   x="0px"
   y="0px"
   viewBox="0 0 137.3 137.53094"
   xml:space="preserve"
   sodipodi:docname="uvv_brasao.svg"
   width="137.3"
   height="137.53094"
   inkscape:version="1.1.2 (0a00cf5339, 2022-02-04)"
   inkscape:export-filename="/home/abrantesasf/repositoriosGit/uvv/logo/uvv_brasao.png"
   inkscape:export-xdpi="600.30127"
   inkscape:export-ydpi="600.30127"
   xmlns:inkscape="http://www.inkscape.org/namespaces/inkscape"
   xmlns:sodipodi="http://sodipodi.sourceforge.net/DTD/sodipodi-0.dtd"
   xmlns:xlink="http://www.w3.org/1999/xlink"
   xmlns="http://www.w3.org/2000/svg"
   xmlns:svg="http://www.w3.org/2000/svg"><defs
   id="defs231">
	
	
	
	
	
	
	
	
	
	
	
	
	
	
	
	
	
	
	
	
	
	
	
	
	
	
	
	
	
	
	
	
	
	
	
	
	
	
	
	
	
	
	
	
	
	
	
	
	
	
	
	
	
	
	
	
	
	
	
	
	
	
	
	
	
	
	
	
	
	
	
	
	
	
	
	
	
	
</defs><sodipodi:namedview
   id="namedview229"
   pagecolor="#ffffff"
   bordercolor="#666666"
   borderopacity="1.0"
   inkscape:pageshadow="2"
   inkscape:pageopacity="0.0"
   inkscape:pagecheckerboard="0"
   showgrid="false"
   fit-margin-top="0"
   fit-margin-left="0"
   fit-margin-right="0"
   fit-margin-bottom="0"
   inkscape:zoom="3.3237885"
   inkscape:cx="25.422797"
   inkscape:cy="68.746852"
   inkscape:window-width="1920"
   inkscape:window-height="1025"
   inkscape:window-x="0"
   inkscape:window-y="0"
   inkscape:window-maximized="1"
   inkscape:current-layer="Camada_1" />
<style
   type="text/css"
   id="style2">
	.st0{fill:#2F2B62;}
	.st1{fill:#E3B42C;}
	.st2{clip-path:url(#SVGID_2_);fill:#FFFFFF;}
	.st3{fill:#FFFFFF;}
	.st4{fill:#E5B52C;}
</style>
<path
   class="st0"
   d="m 133.85,74.01547 c -0.1,-0.1 -0.1,-0.3 0,-0.4 l 3.3,-2.4 c 0.2,-0.1 0.2,-0.3 0,-0.4 l -3.2,-2.6 c -0.1,-0.1 -0.2,-0.3 0,-0.5 l 3.1,-2.7 c 0.1,-0.1 0.1,-0.3 0,-0.4 l -3.4,-2.3 c -0.2,-0.1 -0.2,-0.3 0,-0.4 l 2.8,-2.9 c 0.1,-0.1 0.1,-0.3 -0.1,-0.4 l -3.6,-2 c -0.2,-0.1 -0.2,-0.3 -0.1,-0.4 l 2.6,-3.2 c 0.1,-0.1 0.1,-0.3 -0.1,-0.4 l -3.7,-1.7 c -0.2,-0.1 -0.2,-0.3 -0.1,-0.4 l 2.3,-3.4 c 0.1,-0.2 0,-0.3 -0.1,-0.4 l -3.9,-1.3 c -0.2,-0.1 -0.3,-0.3 -0.2,-0.4 l 2,-3.6 c 0.1,-0.2 0,-0.3 -0.2,-0.4 l -4,-1 c -0.2,0 -0.3,-0.2 -0.2,-0.4 l 1.6,-3.7 c 0.1,-0.2 0,-0.3 -0.2,-0.4 l -4,-0.6 c -0.2,0 -0.3,-0.2 -0.2,-0.4 l 1.3,-3.9 c 0.1,-0.2 0,-0.3 -0.2,-0.4 l -4.1,-0.2 c -0.2,0 -0.3,-0.2 -0.3,-0.4 l 0.9,-4 c 0,-0.2 -0.1,-0.3 -0.3,-0.3 l -4.1,0.1 c -0.2,0 -0.3,-0.1 -0.3,-0.3 l 0.6,-4 c 0,-0.2 -0.1,-0.3 -0.3,-0.3 l -4.1,0.5 c -0.2,0 -0.3,-0.1 -0.3,-0.3 l 0.2,-4.1 c 0,-0.2 -0.1,-0.3 -0.3,-0.3 l -4,0.8 c -0.2,0 -0.3,-0.1 -0.4,-0.3 l -0.2,-4.1 c 0,-0.2 -0.2,-0.3 -0.3,-0.2 l -3.9,1.2 c -0.2,0.1 -0.4,-0.1 -0.4,-0.2 l -0.5,-4.0999999 c 0,-0.2 -0.2,-0.3 -0.4,-0.2 l -3.8,1.4999999 c -0.2,0.1 -0.4,0 -0.4,-0.2 l -0.9,-3.9999999 c 0,-0.2 -0.2,-0.3 -0.4,-0.2 l -3.6,1.9 c -0.2,0.1 -0.4,0 -0.4,-0.2 l -1.2,-3.9 c -0.1,-0.2 -0.2,-0.2 -0.4,-0.1 l -3.4,2.2 c -0.2,0.1 -0.4,0 -0.4,-0.1 l -1.6,-4 c -0.1,-0.2 -0.3,-0.2 -0.4,-0.1 l -3.2,2.5 c -0.2,0.1 -0.4,0.1 -0.4,-0.1 l -1.9,-3.6 c -0.1,-0.20000005 -0.3,-0.20000005 -0.4,-0.1 l -3,2.8 c -0.1,0.1 -0.3,0.1 -0.4,-0.1 l -2.2,-3.40000005 c -0.1,-0.2 -0.3,-0.2 -0.4,0 l -2.7,3.00000005 c -0.1,0.1 -0.3,0.1 -0.5,0 l -2.5,-3.20000005 c -0.1,-0.2 -0.3,-0.1 -0.4,0 l -2.7,3.30000005 c -0.1,0.2 -0.3,0.2 -0.4,0 l -2.8,-3.00000005 c -0.1,-0.1 -0.3,-0.1 -0.4,0 l -2.2,3.50000005 c -0.1,0.2 -0.3,0.2 -0.4,0.1 l -3.2,-2.7 c -0.1,-0.1 -0.3,-0.1 -0.4,0.1 l -1.8,3.7 c -0.1,0.2 -0.3,0.2 -0.4,0.1 l -3.3,-2.4 c -0.2,-0.1 -0.3,-0.1 -0.4,0.1 l -1.5,3.8 c -0.1,0.2 -0.3,0.2 -0.4,0.1 l -3.5,-2.1 c -0.2,-0.1 -0.3,0 -0.4,0.2 l -1.2,3.9 c -0.1,0.2 -0.2,0.3 -0.4,0.2 l -3.7,-1.8 c -0.2,-0.1 -0.3,0 -0.4,0.2 l -0.8,3.9999999 c 0,0.2 -0.2,0.3 -0.4,0.2 l -3.8,-1.5 c -0.2,-0.1 -0.3,0 -0.4,0.2 l -0.4,4.1 c 0,0.2 -0.2,0.3 -0.4,0.3 l -3.9,-1.1 c -0.2,-0.1 -0.3,0.1 -0.3,0.3 l -0.1,4.1 c 0,0.2 -0.2,0.3 -0.3,0.3 l -4,-0.8 c -0.2,0 -0.3,0.1 -0.3,0.3 l 0.3,4.1 c 0,0.2 -0.1,0.3 -0.3,0.3 l -4.1,-0.4 c -0.2,0 -0.3,0.1 -0.3,0.3 l 0.7,4 c 0,0.2 -0.1,0.3 -0.3,0.3 h -4.1 c -0.2,0 -0.3,0.2 -0.3,0.3 l 1,4 c 0,0.2 -0.1,0.4 -0.3,0.4 l -4.1,0.3 c -0.2,0 -0.3,0.2 -0.2,0.4 l 1.4,3.9 c 0.1,0.2 0,0.4 -0.2,0.4 l -4,0.7 c -0.2,0 -0.3,0.2 -0.2,0.4 l 1.7,3.7 c 0.1,0.2 0,0.4 -0.2,0.4 l -3.9,1.1 c -0.2,0 -0.3,0.2 -0.2,0.4 l 2,3.5 c 0.1,0.2 0,0.4 -0.2,0.4 l -3.8,1.4 c -0.2,0.1 -0.2,0.3 -0.1,0.4 l 2.3,3.3 c 0.1,0.2 0.1,0.4 -0.1,0.4 l -3.7,1.8 c -0.2,0.1 -0.2,0.3 -0.1,0.4 l 2.6,3.1 c 0.1,0.1 0.1,0.3 -0.1,0.4 l -3.5,2.1 c -0.2,0.1 -0.2,0.3 -0.1,0.4 l 2.9,2.9 c 0.1,0.1 0.1,0.3 0,0.4 l -3.3,2.4 c -0.2,0.1 -0.2,0.3 0,0.4 l 3.2,2.6 c 0.1,0.1 0.2,0.3 0,0.5 l -3.1,2.7 c -0.1,0.1 -0.1,0.3 0,0.4 l 3.4,2.3 c 0.2,0.1 0.2,0.3 0,0.4 l -2.8,3 c -0.1,0.1 -0.1,0.3 0.1,0.4 l 3.6,2 c 0.2,0.1 0.2,0.3 0.1,0.4 l -2.6,3.2 c -0.1,0.1 -0.1,0.3 0.1,0.4 l 3.7,1.7 c 0.2,0.1 0.2,0.3 0.1,0.4 l -2.3,3.5 c -0.1,0.2 0,0.3 0.1,0.4 l 3.9,1.3 c 0.2,0.1 0.3,0.3 0.2,0.4 l -2,3.6 c -0.1,0.2 0,0.3 0.2,0.4 l 4,1 c 0.2,0 0.3,0.2 0.2,0.4 l -1.6,3.8 c -0.1,0.2 0,0.3 0.2,0.4 l 4,0.6 c 0.2,0 0.3,0.2 0.2,0.4 l -1.3,3.9 c -0.1,0.2 0,0.3 0.2,0.4 l 4.1,0.3 c 0.2,0 0.3,0.2 0.3,0.4 l -0.9,4 c 0,0.2 0.1,0.3 0.3,0.3 l 4.1,-0.1 c 0.2,0 0.3,0.1 0.3,0.3 l -0.6,4 c 0,0.2 0.1,0.3 0.3,0.3 l 4.1,-0.5 c 0.2,0 0.3,0.1 0.3,0.3 l -0.2,4.1 c 0,0.2 0.1,0.3 0.3,0.3 l 4,-0.8 c 0.2,0 0.3,0.1 0.4,0.3 l 0.2,4.1 c 0,0.2 0.2,0.3 0.3,0.2 l 3.9,-1.2 c 0.2,-0.1 0.4,0.1 0.4,0.2 l 0.5,4.1 c 0,0.2 0.2,0.3 0.4,0.2 l 3.8,-1.5 c 0.2,-0.1 0.4,0 0.4,0.2 l 0.9,4 c 0,0.2 0.2,0.3 0.4,0.2 l 3.6,-1.9 c 0.2,-0.1 0.4,0 0.4,0.2 l 1.2,3.9 c 0.1,0.2 0.2,0.2 0.4,0.1 l 3.4,-2.2 c 0.2,-0.1 0.4,0 0.4,0.1 l 1.6,3.8 c 0.1,0.2 0.3,0.2 0.4,0.1 l 3.2,-2.5 c 0.2,-0.1 0.4,-0.1 0.4,0.1 l 1.9,3.6 c 0.1,0.2 0.3,0.2 0.4,0.1 l 3,-2.8 c 0.1,-0.1 0.3,-0.1 0.4,0.1 l 2.2,3.4 c 0.1,0.2 0.3,0.2 0.4,0 l 2.7,-3 c 0.1,-0.1 0.3,-0.1 0.5,0 l 2.5,3.2 c 0.1,0.2 0.3,0.1 0.4,0 l 2.5,-3.3 c 0.1,-0.2 0.3,-0.2 0.5,0 l 2.8,3 c 0.1,0.1 0.3,0.1 0.4,0 l 2.2,-3.5 c 0.1,-0.2 0.3,-0.2 0.4,-0.1 l 3.1,2.7 c 0.1,0.1 0.3,0.1 0.4,-0.1 l 1.8,-3.7 c 0.1,-0.2 0.3,-0.2 0.4,-0.1 l 3.3,2.4 c 0.2,0.1 0.3,0.1 0.4,-0.1 l 1.5,-3.8 c 0.1,-0.2 0.3,-0.2 0.4,-0.1 l 3.5,2.1 c 0.2,0.1 0.3,0 0.4,-0.2 l 1.1,-3.9 c 0.1,-0.2 0.2,-0.3 0.4,-0.2 l 3.7,1.8 c 0.2,0.1 0.3,0 0.4,-0.2 l 0.8,-4 c 0,-0.2 0.2,-0.3 0.4,-0.2 l 3.8,1.5 c 0.2,0.1 0.3,0 0.4,-0.2 l 0.4,-4.1 c 0,-0.2 0.2,-0.3 0.4,-0.3 l 3.9,1.1 c 0.2,0.1 0.3,-0.1 0.3,-0.3 l 0.1,-4.1 c 0,-0.2 0.2,-0.3 0.3,-0.3 l 4,0.8 c 0.2,0 0.3,-0.1 0.3,-0.3 l -0.3,-4.1 c 0,-0.2 0.1,-0.3 0.3,-0.3 l 4.1,0.4 c 0.2,0 0.3,-0.1 0.3,-0.3 l -0.7,-4 c 0,-0.2 0.1,-0.3 0.3,-0.3 h 4.1 c 0.2,0 0.3,-0.2 0.3,-0.3 l -1,-4 c 0,-0.2 0.1,-0.4 0.3,-0.4 l 4.1,-0.3 c 0.2,0 0.3,-0.2 0.2,-0.4 l -1.4,-3.8 c -0.1,-0.2 0,-0.4 0.2,-0.4 l 4,-0.7 c 0.2,0 0.3,-0.2 0.2,-0.4 l -1.7,-3.7 c -0.1,-0.2 0,-0.4 0.2,-0.4 l 3.9,-1.1 c 0.2,-0.1 0.3,-0.2 0.2,-0.4 l -2,-3.5 c -0.1,-0.2 0,-0.4 0.2,-0.4 l 3.8,-1.4 c 0.2,-0.1 0.2,-0.2 0.1,-0.4 l -2.4,-3.3 c -0.1,-0.2 -0.1,-0.4 0.1,-0.4 l 3.7,-1.8 c 0.2,-0.1 0.2,-0.3 0.1,-0.4 l -2.6,-3.1 c -0.1,-0.1 -0.1,-0.3 0.1,-0.4 l 3.5,-2.1 c 0.2,-0.1 0.2,-0.3 0.1,-0.4 z"
   id="path4" /><path
   class="st1"
   d="m 68.75,129.81547 c -33.8,0 -61.1,-27.4 -61.1,-61.1 0,-33.8 27.4,-61.0999999 61.1,-61.0999999 33.8,0 61.1,27.3999999 61.1,61.0999999 0,33.7 -27.4,61.1 -61.1,61.1"
   id="path6" /><path
   class="st0"
   d="m 19.05,81.21547 c 0.4,-0.1 0.7,-0.2 1,-0.3 0.3,-0.1 0.5,-0.3 0.7,-0.4 0.2,-0.2 0.3,-0.4 0.3,-0.6 0.1,-0.2 0,-0.5 0,-0.8 -0.2,-0.7 -0.5,-1.1 -1,-1.3 -0.3,-0.1 -0.6,-0.1 -0.9,-0.1 -0.3,0 -0.7,0.1 -1.2,0.2 l -1.6,0.4 c -0.8,0.2 -1.5,0.4 -1.9,0.5 -0.5,0.1 -0.8,0.3 -0.9,0.4 0,0.1 -0.1,0.1 -0.1,0.2 0,0.1 0,0.2 0,0.2 0,0.1 0,0.2 0,0.2 0,0.1 -0.1,0.1 -0.2,0.1 -0.2,0 -0.3,-0.1 -0.3,-0.3 0,-0.1 0,-0.2 -0.1,-0.4 0,-0.2 -0.1,-0.3 -0.1,-0.6 0,-0.2 -0.1,-0.3 -0.1,-0.5 -0.1,-0.1 -0.1,-0.3 -0.1,-0.4 0,-0.1 0,-0.2 0,-0.3 0,-0.1 0.1,-0.1 0.2,-0.1 0.1,0 0.2,0 0.2,0 0,0 0.1,0.1 0.1,0.2 0,0.1 0,0.2 0.1,0.2 0,0.1 0.1,0.1 0.2,0.2 0.2,0.1 0.5,0.1 1,0 0.5,-0.1 1.1,-0.2 2,-0.4 l 1.5,-0.1 c 0.5,-0.1 1,-0.2 1.3,-0.3 0.4,-0.1 0.7,0 1.1,0.1 0.4,0.1 0.7,0.4 0.9,0.7 0.3,0.3 0.4,0.8 0.6,1.3 0.1,0.6 0.2,1.1 0.1,1.5 -0.1,0.4 -0.2,0.8 -0.5,1.1 -0.2,0.2 -0.5,0.4 -0.8,0.5 -0.3,0.1 -0.7,0.2 -1.1,0.3 l -4.4,1 c -0.2,0 -0.3,0.1 -0.4,0.2 -0.1,0.1 -0.1,0.2 -0.1,0.3 0,0.2 0,0.3 0,0.3 0,0.1 -0.1,0.1 -0.2,0.2 -0.2,0 -0.3,0 -0.3,-0.2 0,-0.1 0,-0.2 -0.1,-0.4 0,-0.2 -0.1,-0.6 -0.2,-1 -0.1,-0.4 -0.2,-0.7 -0.3,-0.9 -0.1,-0.2 -0.1,-0.4 -0.1,-0.4 0,-0.2 0,-0.3 0.2,-0.3 0.1,0 0.2,0 0.2,0 0,0 0.1,0.1 0.1,0.3 0.1,0.2 0.2,0.3 0.3,0.4 0.1,0.1 0.3,0.1 0.5,0 z"
   id="path8" /><path
   class="st0"
   d="m 19.95,67.21547 c 0.4,0 0.6,0.1 0.6,0.3 0,0.1 0,0.2 -0.1,0.3 -0.1,0.1 -0.2,0.2 -0.4,0.3 l -6.2,4.2 c 0.1,0 0,0.1 0,0.1 0,0 0.1,0 0.2,0 l 4.4,-0.1 c 0.4,0 0.7,0 0.9,-0.1 0.2,0 0.3,-0.2 0.4,-0.3 0,-0.1 0.1,-0.2 0.1,-0.3 0,-0.1 0,-0.2 0,-0.2 0,-0.1 0,-0.1 0,-0.2 0,0 0.1,-0.1 0.2,-0.1 0.2,0 0.3,0.1 0.3,0.3 0,0.1 0,0.2 0,0.4 0,0.2 0,0.4 0,0.6 0,0.2 0,0.4 0.1,0.6 0,0.1 0,0.3 0,0.3 0,0.2 -0.1,0.3 -0.3,0.3 -0.1,0 -0.1,0 -0.2,0 0,0 -0.1,-0.1 -0.1,-0.1 0,-0.1 0,-0.1 0,-0.2 0,-0.1 0,-0.2 -0.1,-0.2 -0.1,-0.1 -0.2,-0.2 -0.4,-0.3 -0.2,0 -0.5,-0.1 -1,0 l -4.8,0.1 c -0.3,0 -0.5,0 -0.7,0.1 -0.2,0 -0.3,0.1 -0.3,0.2 0,0.1 0,0.1 0,0.2 0,0.1 0,0.1 0,0.2 0,0.1 0,0.1 -0.1,0.1 0,0 -0.1,0.1 -0.2,0.1 -0.2,0 -0.3,-0.1 -0.3,-0.2 0,0 0,-0.2 0,-0.3 0,-0.2 0,-0.5 0,-0.9 0,-0.2 0,-0.4 0,-0.6 0,-0.1 0,-0.2 0,-0.3 0,-0.1 0,-0.2 0,-0.2 0,0 0.1,-0.1 0.2,-0.2 l 4.5,-3.1 c 0.1,-0.1 0.1,-0.1 0.1,-0.1 0,-0.1 -0.1,-0.1 -0.2,-0.1 l -2.7,0.1 c -0.4,0 -0.7,0 -0.9,0.1 -0.2,0.1 -0.3,0.2 -0.4,0.3 0,0.1 -0.1,0.2 -0.1,0.3 0,0.1 0,0.2 0,0.2 0,0.1 0,0.1 -0.1,0.2 0,0 -0.1,0.1 -0.2,0.1 -0.2,0 -0.3,-0.1 -0.3,-0.3 0,-0.1 0,-0.2 0,-0.3 0,-0.1 0,-0.2 0,-0.2 0,0 0,-0.1 0,-0.1 0,-0.1 0,-0.2 0,-0.3 0,-0.2 0,-0.3 0,-0.3 0,-0.1 0,-0.1 0,-0.1 0,0 0,-0.1 0,-0.2 0,-0.1 0,-0.2 0,-0.3 0,-0.2 0.1,-0.3 0.3,-0.3 0.1,0 0.1,0 0.1,0 0,0 0,0.1 0.1,0.1 0,0 0,0.1 0,0.2 0,0.1 0,0.2 0.1,0.2 0.1,0.1 0.2,0.2 0.4,0.3 0.2,0 0.5,0.1 1,0 z"
   id="path10" /><path
   class="st0"
   d="m 19.75,61.31547 c 0.2,0 0.3,0 0.4,0 0.1,-0.1 0.2,-0.2 0.2,-0.3 0,-0.1 0.1,-0.3 0.1,-0.3 0,-0.1 0.1,-0.1 0.2,-0.1 0.2,0 0.3,0.1 0.3,0.3 0,0.1 0,0.2 -0.1,0.4 -0.1,0.2 -0.1,0.6 -0.2,1 -0.1,0.4 -0.1,0.8 -0.1,1 0,0.2 0,0.4 0,0.5 0,0.2 -0.1,0.2 -0.3,0.2 -0.1,0 -0.2,-0.1 -0.2,-0.1 0,-0.1 0,-0.2 0,-0.3 0,-0.2 -0.1,-0.3 -0.1,-0.4 -0.1,-0.1 -0.2,-0.1 -0.4,-0.2 l -6,-0.8 c -0.2,0 -0.3,0 -0.4,0 -0.1,0 -0.2,0.1 -0.2,0.3 0,0.1 -0.1,0.2 -0.1,0.3 0,0.1 -0.1,0.1 -0.2,0.1 -0.2,0 -0.3,-0.1 -0.2,-0.3 0,-0.1 0,-0.2 0.1,-0.4 0.1,-0.2 0.1,-0.6 0.2,-1 0.1,-0.4 0.1,-0.8 0.1,-1 0,-0.2 0,-0.4 0,-0.4 0,-0.2 0.1,-0.2 0.3,-0.2 0.1,0 0.2,0 0.2,0.1 0,0.1 0,0.1 0,0.3 0,0.2 0,0.3 0.1,0.4 0.1,0.1 0.2,0.1 0.5,0.2 z"
   id="path12" /><path
   class="st0"
   d="m 19.55,53.91547 c 0.1,0 0.1,0 0.1,-0.1 0,-0.1 0,-0.1 -0.1,-0.1 l -3.2,-2.2 c -0.2,-0.1 -0.3,-0.2 -0.4,-0.2 -0.1,-0.1 -0.2,-0.1 -0.3,-0.1 -0.1,0 -0.2,0 -0.3,0 -0.1,0.1 -0.1,0.1 -0.2,0.2 -0.1,0.1 -0.1,0.2 -0.2,0.2 -0.1,0.1 -0.1,0.1 -0.3,0.1 -0.2,0 -0.2,-0.2 -0.2,-0.4 0,-0.1 0.1,-0.2 0.1,-0.3 0.1,-0.1 0.1,-0.3 0.2,-0.5 0.1,-0.2 0.1,-0.3 0.1,-0.5 0,-0.1 0,-0.3 0.1,-0.3 0.1,-0.2 0.2,-0.3 0.3,-0.2 0.1,0 0.1,0.1 0.2,0.1 0,0 0,0.1 0.1,0.2 0,0.1 0,0.1 0,0.2 0,0.1 0,0.1 0.1,0.2 0.1,0.2 0.2,0.3 0.5,0.5 0.2,0.2 0.6,0.4 1,0.7 l 3.4,2.4 c 0.3,0.2 0.6,0.4 0.9,0.6 0.2,0.2 0.4,0.3 0.6,0.4 0.2,0.1 0.3,0.2 0.3,0.3 0.1,0.1 0.1,0.2 0.1,0.3 0,0.1 -0.1,0.2 -0.2,0.2 -0.1,0 -0.2,0.1 -0.4,0.1 -0.2,0 -0.4,0 -0.6,0 -0.3,0 -0.6,0 -0.9,0 l -5,0.2 c -0.3,0 -0.6,0 -0.9,0 -0.2,0 -0.4,0.1 -0.5,0.1 -0.1,0 -0.1,0.1 -0.2,0.1 0,0.1 -0.1,0.1 -0.1,0.1 0,0 -0.1,0.1 -0.1,0.1 0,0 -0.1,0 -0.2,0 -0.1,0 -0.1,-0.1 -0.2,-0.1 0,-0.1 0,-0.1 0,-0.2 0,-0.1 0.1,-0.2 0.2,-0.4 0.1,-0.2 0.2,-0.5 0.3,-0.9 0.1,-0.4 0.2,-0.7 0.2,-0.9 0,-0.2 0.1,-0.4 0.1,-0.5 0.1,-0.2 0.2,-0.2 0.3,-0.2 0.1,0 0.2,0.1 0.2,0.2 0,0.1 0,0.2 0,0.3 0,0.1 0,0.2 0,0.3 0,0.1 0.1,0.1 0.1,0.2 0,0 0.1,0 0.1,0 0,0 0.1,0 0.1,0 z"
   id="path14" /><path
   class="st0"
   d="m 20.25,42.21547 c 0.1,0.1 0.2,0.1 0.3,0.2 0.1,0 0.1,0.1 0,0.2 -0.1,0.1 -0.2,0.2 -0.3,0.2 -0.2,0 -0.4,0 -0.7,0.1 -0.4,0.1 -0.7,0.3 -1,0.8 -0.2,0.3 -0.2,0.6 -0.2,0.8 0.1,0.2 0.2,0.3 0.4,0.4 l 1.7,0.8 c 0.1,0.1 0.2,0.1 0.3,0 0.1,-0.1 0.2,-0.2 0.3,-0.4 0.1,-0.2 0.2,-0.4 0.2,-0.6 0,-0.2 0,-0.3 -0.1,-0.4 -0.1,-0.1 -0.2,-0.2 -0.3,-0.3 -0.1,-0.1 -0.2,-0.1 -0.2,-0.2 -0.1,-0.1 -0.1,-0.1 -0.1,-0.2 0,-0.1 0,-0.1 0,-0.2 0,-0.1 0.1,-0.1 0.1,-0.1 0.1,0 0.1,0 0.2,0 0,0 0.1,0.1 0.3,0.2 0.1,0.1 0.4,0.2 0.6,0.3 0.3,0.1 0.6,0.3 0.8,0.4 0.2,0.1 0.4,0.2 0.5,0.2 0.2,0.1 0.2,0.2 0.2,0.3 -0.1,0.1 -0.2,0.2 -0.3,0.1 -0.1,0 -0.3,0 -0.5,0 -0.2,0 -0.4,0 -0.6,0.1 -0.1,0.1 -0.3,0.2 -0.4,0.5 0,0 0,0.1 -0.1,0.1 0,0 0,0.1 -0.1,0.2 v 0.1 c 0,0.1 0,0.2 0.1,0.2 l 1.9,0.9 c 0.2,0.1 0.4,0.2 0.5,0.2 0.2,0.1 0.3,0.1 0.4,0.1 0.1,0 0.2,-0.1 0.4,-0.2 0.1,-0.1 0.2,-0.3 0.3,-0.5 0.1,-0.2 0.2,-0.5 0.2,-0.7 0,-0.3 -0.1,-0.5 -0.2,-0.7 -0.1,-0.2 -0.2,-0.3 -0.3,-0.4 -0.1,-0.1 -0.2,-0.2 -0.2,-0.3 -0.1,-0.1 -0.1,-0.2 -0.1,-0.2 0,-0.1 0,-0.1 0,-0.2 0.1,-0.2 0.2,-0.2 0.5,0 0.1,0.1 0.2,0.1 0.3,0.2 l 0.9,0.6 c 0.1,0.1 0.2,0.2 0.2,0.2 0,0.1 0,0.2 0,0.3 0,0.1 -0.2,0.4 -0.5,0.8 -0.3,0.5 -0.6,1.1 -1.1,2 -0.3,0.5 -0.4,0.9 -0.5,1.3 -0.1,0.3 -0.2,0.5 -0.2,0.6 -0.1,0.2 -0.2,0.2 -0.4,0.1 -0.1,0 -0.1,-0.1 -0.1,-0.2 0,-0.1 0,-0.2 0.1,-0.3 0.1,-0.2 0.1,-0.3 0,-0.5 0,-0.1 -0.2,-0.2 -0.4,-0.3 l -5.2,-2.5 c -0.2,-0.1 -0.3,-0.1 -0.4,-0.1 -0.1,0 -0.2,0.1 -0.3,0.2 -0.1,0.1 -0.2,0.3 -0.2,0.3 -0.1,0.1 -0.1,0.1 -0.2,0 -0.2,-0.1 -0.2,-0.2 -0.1,-0.4 0,0 0.1,-0.2 0.3,-0.5 0.2,-0.3 0.4,-0.8 0.7,-1.4 0.3,-0.7 0.6,-1.3 0.8,-1.7 0.2,-0.5 0.3,-0.8 0.4,-0.9 0.1,-0.1 0.1,-0.2 0.2,-0.2 0,0 0.1,0 0.2,0 z"
   id="path16" /><path
   class="st0"
   d="m 27.35,36.51547 c 0.2,0 0.5,0 0.7,0 l 2.5,0.5 c 0.2,0 0.3,0.1 0.5,0 0.1,0 0.2,-0.1 0.3,-0.1 0.1,0 0.2,-0.1 0.2,-0.1 0.1,0 0.1,0 0.2,0 0.1,0 0.1,0.1 0.1,0.2 0,0.1 0,0.1 0,0.2 0,0.1 -0.1,0.1 -0.2,0.2 -0.1,0.1 -0.2,0.2 -0.4,0.4 -0.1,0.1 -0.2,0.3 -0.3,0.4 -0.1,0.1 -0.2,0.3 -0.2,0.4 -0.1,0.1 -0.1,0.2 -0.2,0.2 -0.1,0 -0.2,0 -0.4,-0.1 l -2.9,-0.7 c -0.6,-0.2 -1,-0.1 -1.1,0.1 l -0.1,0.1 c -0.1,0.1 0,0.2 0.1,0.2 l 2.2,1.6 c 0.2,0.1 0.3,0.2 0.4,0.2 0.1,0 0.2,0 0.3,-0.2 0.1,-0.1 0.2,-0.2 0.2,-0.2 0.1,0 0.1,0 0.2,0 0.2,0.1 0.2,0.2 0.1,0.4 0,0 -0.1,0.2 -0.3,0.3 -0.2,0.2 -0.4,0.4 -0.6,0.8 -0.3,0.4 -0.4,0.6 -0.6,0.8 -0.1,0.2 -0.2,0.3 -0.2,0.4 -0.1,0.1 -0.2,0.1 -0.4,0 -0.1,-0.1 -0.1,-0.1 -0.1,-0.2 0,-0.1 0,-0.2 0.1,-0.3 0.1,-0.2 0.1,-0.3 0.1,-0.4 0,-0.1 -0.1,-0.2 -0.3,-0.3 l -4.9,-3.5 c -0.2,-0.1 -0.3,-0.2 -0.4,-0.2 -0.1,0 -0.2,0 -0.3,0.1 -0.1,0.1 -0.2,0.2 -0.3,0.2 -0.1,0.1 -0.1,0 -0.2,0 -0.2,-0.1 -0.2,-0.3 0,-0.5 0.1,-0.1 0.1,-0.2 0.2,-0.3 0.1,-0.1 0.2,-0.2 0.3,-0.4 0.3,-0.4 0.6,-0.8 0.8,-1.2 0.2,-0.4 0.4,-0.7 0.6,-0.9 0.5,-0.6 1,-1 1.5,-1.1 0.5,-0.1 1,0 1.6,0.4 0.4,0.3 0.7,0.7 0.8,1.2 0.1,0.5 0,1 -0.3,1.6 0.3,-0.1 0.5,-0.2 0.7,-0.2 m -2.3,1.2 c 0.2,0.1 0.3,0.2 0.4,0.2 0.1,0 0.2,0 0.3,-0.2 0.3,-0.4 0.4,-0.7 0.3,-1.1 -0.1,-0.4 -0.3,-0.7 -0.7,-1 -0.2,-0.1 -0.4,-0.2 -0.6,-0.3 -0.2,-0.1 -0.4,-0.1 -0.6,-0.1 -0.2,0 -0.4,0 -0.5,0.1 -0.2,0.1 -0.3,0.2 -0.4,0.3 -0.2,0.2 -0.2,0.4 -0.1,0.5 0.1,0.1 0.3,0.3 0.5,0.5 z"
   id="path18" /><path
   class="st0"
   d="m 31.95,27.91547 c 0.1,0.1 0.1,0.2 0.1,0.3 -0.1,0.1 -0.2,0.1 -0.3,0 -0.1,-0.1 -0.3,-0.1 -0.5,-0.2 -0.3,-0.2 -0.6,-0.3 -0.9,-0.3 -0.2,0 -0.5,0.1 -0.7,0.3 -0.2,0.2 -0.3,0.5 -0.3,0.8 0,0.3 0.1,0.6 0.3,0.8 0.2,0.2 0.3,0.3 0.5,0.3 0.1,0 0.3,0.1 0.5,0 0.2,0 0.3,-0.1 0.5,-0.1 0.2,-0.1 0.4,-0.1 0.6,-0.2 0.4,-0.1 0.7,-0.2 1,-0.2 0.3,0 0.6,0 0.9,0 0.3,0 0.5,0.1 0.8,0.3 0.2,0.1 0.5,0.3 0.7,0.5 0.3,0.3 0.5,0.6 0.7,1 0.1,0.4 0.2,0.7 0.2,1.1 0,0.4 -0.1,0.7 -0.2,1.1 -0.1,0.4 -0.4,0.7 -0.7,1 -0.2,0.1 -0.3,0.3 -0.5,0.4 -0.2,0.1 -0.3,0.2 -0.5,0.3 -0.2,0.1 -0.3,0.1 -0.4,0.2 -0.1,0 -0.2,0.1 -0.3,0.1 -0.1,0 -0.2,0 -0.3,-0.1 -0.1,-0.1 -0.2,-0.2 -0.4,-0.4 l -0.8,-0.8 c -0.1,-0.1 -0.1,-0.3 0,-0.4 0.1,-0.1 0.2,-0.1 0.4,0 0.1,0.1 0.4,0.2 0.6,0.4 0.8,0.4 1.4,0.4 1.9,-0.1 0.3,-0.3 0.5,-0.6 0.5,-1 0,-0.4 -0.1,-0.7 -0.4,-1 -0.2,-0.2 -0.3,-0.3 -0.5,-0.3 -0.2,-0.1 -0.3,-0.1 -0.5,-0.1 -0.2,0 -0.4,0 -0.6,0.1 -0.2,0 -0.5,0.1 -0.8,0.2 -0.3,0.1 -0.6,0.2 -0.9,0.2 -0.3,0 -0.5,0 -0.8,0 -0.2,0 -0.5,-0.1 -0.7,-0.2 -0.2,-0.1 -0.4,-0.3 -0.7,-0.5 -0.3,-0.3 -0.5,-0.6 -0.6,-0.9 -0.1,-0.3 -0.2,-0.7 -0.2,-1 0,-0.3 0.1,-0.7 0.2,-1 0.1,-0.3 0.3,-0.6 0.6,-0.8 0.3,-0.3 0.5,-0.4 0.8,-0.6 0.3,-0.1 0.5,-0.2 0.6,-0.2 0.1,0 0.2,0 0.2,0.1 0.1,0 0.1,0.1 0.2,0.2 l 0.1,0.1 z"
   id="path20" /><path
   class="st0"
   d="m 40.45,28.01547 c 0.1,0.2 0.2,0.3 0.3,0.3 0.1,0 0.2,0 0.4,0 0.1,-0.1 0.2,-0.1 0.3,-0.1 0.1,0 0.1,0 0.2,0.1 0.1,0.2 0.1,0.3 0,0.4 -0.1,0 -0.2,0.1 -0.4,0.2 -0.2,0.1 -0.5,0.3 -0.9,0.6 -0.4,0.3 -0.6,0.5 -0.8,0.7 -0.2,0.2 -0.3,0.3 -0.3,0.3 -0.1,0.1 -0.3,0.1 -0.4,-0.1 -0.1,-0.1 -0.1,-0.1 0,-0.2 0,-0.1 0.1,-0.1 0.2,-0.2 0.1,-0.1 0.2,-0.3 0.2,-0.4 0,-0.1 -0.1,-0.2 -0.2,-0.4 l -3.5,-4.9 c -0.1,-0.2 -0.2,-0.3 -0.3,-0.3 -0.1,0 -0.2,0 -0.4,0 -0.1,0.1 -0.2,0.1 -0.3,0.1 -0.1,0 -0.2,0 -0.2,-0.1 -0.1,-0.2 -0.1,-0.3 0,-0.4 0,0 0.2,-0.1 0.4,-0.2 0.2,-0.1 0.5,-0.3 0.9,-0.6 0.4,-0.3 0.6,-0.5 0.8,-0.6 0.2,-0.2 0.3,-0.3 0.3,-0.3 0.1,-0.1 0.3,-0.1 0.4,0.1 0.1,0.1 0.1,0.1 0,0.2 0,0.1 -0.1,0.1 -0.2,0.2 -0.1,0.1 -0.2,0.3 -0.2,0.4 0,0.1 0,0.3 0.2,0.4 z"
   id="path22" /><path
   class="st0"
   d="m 41.35,20.31547 c -0.1,-0.3 -0.3,-0.4 -0.6,-0.3 0,0 -0.1,0.1 -0.2,0.1 -0.1,0 -0.1,0.1 -0.2,0.1 -0.1,0 -0.2,0 -0.2,-0.1 0,-0.1 0,-0.2 0.1,-0.4 0.1,-0.2 0.3,-0.3 0.5,-0.5 0.2,-0.2 0.5,-0.4 0.8,-0.6 0.3,-0.2 0.7,-0.4 1.1,-0.6 0.6,-0.3 1.2,-0.5 1.8,-0.6 0.6,-0.1 1.2,0 1.7,0.2 0.5,0.2 1,0.4 1.4,0.8 0.4,0.4 0.8,0.9 1.1,1.5 0.3,0.5 0.4,1.1 0.5,1.6 0.1,0.6 0,1.1 -0.2,1.6 -0.2,0.5 -0.4,1 -0.8,1.4 -0.4,0.4 -0.9,0.8 -1.5,1.1 -0.3,0.2 -0.7,0.3 -0.9,0.4 -0.3,0.1 -0.5,0.2 -0.7,0.3 -0.3,0.1 -0.5,0.3 -0.7,0.4 -0.2,0.1 -0.3,0.2 -0.4,0.3 -0.2,0.1 -0.3,0 -0.4,-0.1 0,-0.1 0,-0.2 0,-0.2 0,0 0.1,-0.1 0.2,-0.2 0.1,-0.1 0.2,-0.2 0.3,-0.3 0,-0.1 0,-0.3 -0.1,-0.5 z m 4.5,4.9 c 0.2,0.1 0.4,0.1 0.7,0 0.3,-0.1 0.5,-0.4 0.7,-0.6 0.2,-0.3 0.3,-0.6 0.4,-1 0.1,-0.4 0,-0.8 0,-1.3 -0.1,-0.5 -0.3,-1 -0.5,-1.5 -0.3,-0.5 -0.5,-1 -0.9,-1.3 -0.3,-0.4 -0.6,-0.6 -1,-0.8 -0.3,-0.2 -0.7,-0.3 -1,-0.3 -0.3,0 -0.7,0 -1,0.2 -0.2,0.1 -0.3,0.2 -0.4,0.3 -0.1,0.1 -0.1,0.2 -0.2,0.2 0,0.1 0,0.2 0,0.3 0,0.1 0.1,0.2 0.1,0.3 l 2.5,5 c 0.2,0.1 0.4,0.4 0.6,0.5"
   id="path24" /><path
   class="st0"
   d="m 57.45,19.91547 c 0.3,0.5 0.6,0.8 0.9,0.9 0.1,0 0.1,0 0.2,0 0.1,0 0.1,0 0.2,0 0.1,0 0.1,0 0.2,0 0,0 0.1,0.1 0.1,0.2 0,0.1 0,0.2 0,0.2 0,0 -0.1,0.1 -0.2,0.1 -0.1,0 -0.3,0.1 -0.5,0.1 -0.2,0 -0.5,0.1 -0.9,0.2 -0.3,0.1 -0.6,0.2 -0.8,0.3 -0.2,0.1 -0.4,0.2 -0.6,0.2 -0.2,0.1 -0.3,0 -0.4,-0.2 0,-0.1 0,-0.2 0,-0.3 0.1,-0.1 0.1,-0.1 0.2,-0.1 0.1,0 0.1,-0.1 0.2,-0.1 0.1,-0.1 0.1,-0.1 0,-0.3 0,-0.1 -0.1,-0.1 -0.1,-0.2 l -0.8,-1.3 c -0.2,-0.1 -0.3,-0.2 -0.4,-0.2 -0.2,0 -0.4,0.1 -0.9,0.2 -0.2,0.1 -0.4,0.1 -0.5,0.2 -0.1,0 -0.2,0.1 -0.3,0.1 -0.1,0 -0.1,0.1 -0.1,0.2 0,0.1 0,0.1 0,0.2 0,0.6 0,1 0.1,1.2 0,0.2 0.1,0.3 0.2,0.4 0.1,0.1 0.2,0.1 0.4,0.1 0.2,0 0.3,0 0.5,0 0.1,0 0.2,0.1 0.2,0.2 0,0.2 0,0.3 -0.2,0.3 0,0 -0.1,0 -0.3,0.1 -0.2,0 -0.5,0.1 -0.8,0.2 -0.3,0.1 -0.5,0.2 -0.6,0.2 -0.1,0.1 -0.2,0.1 -0.2,0.1 -0.2,0 -0.3,0 -0.3,-0.2 0,-0.1 0,-0.2 0.1,-0.3 0.1,-0.1 0.2,-0.1 0.3,-0.2 0.1,-0.1 0.1,-0.2 0.2,-0.3 0,-0.1 0.1,-0.3 0.1,-0.5 l 0.3,-7.1 c 0,-0.2 0,-0.4 0.1,-0.5 0.1,-0.1 0.1,-0.1 0.3,-0.2 0.2,0 0.3,0 0.3,0 0.1,0 0.2,0.2 0.3,0.4 z m -4.4,-3.3 c 0,0 0,0.1 0,0.2 v 2.3 c 0,0.1 0,0.1 0,0.1 0,0 0.1,0.1 0.1,0 l 1.3,-0.4 c 0.1,0 0.1,-0.1 0.1,-0.1 0,-0.1 0,-0.1 -0.1,-0.1 l -1.3,-1.8 c -0.1,-0.1 -0.1,-0.2 -0.1,-0.2"
   id="path26" /><path
   class="st0"
   d="m 60.85,13.71547 c 0,-0.3 -0.2,-0.5 -0.4,-0.4 -0.1,0 -0.1,0 -0.2,0 -0.1,0 -0.1,0 -0.2,0 -0.1,0 -0.1,-0.1 -0.2,-0.2 0,-0.1 0.1,-0.2 0.2,-0.3 0.2,-0.1 0.4,-0.2 0.7,-0.3 0.3,-0.1 0.6,-0.2 1,-0.3 0.4,-0.1 0.8,-0.1 1.3,-0.2 0.7,-0.1 1.3,0 1.9,0.1 0.6,0.2 1.1,0.4 1.5,0.8 0.4,0.3 0.8,0.8 1,1.3 0.3,0.5 0.4,1.1 0.5,1.7 0.1,0.6 0,1.2 -0.2,1.7 -0.2,0.5 -0.4,1 -0.7,1.4 -0.3,0.4 -0.8,0.8 -1.3,1 -0.5,0.3 -1.1,0.4 -1.8,0.5 -0.4,0 -0.7,0 -1,0 -0.3,0 -0.5,0 -0.8,0 -0.3,0 -0.6,0.1 -0.8,0.1 -0.2,0.1 -0.4,0.1 -0.5,0.1 -0.2,0 -0.3,-0.1 -0.3,-0.3 0,-0.1 0,-0.2 0.1,-0.2 0.1,0 0.2,-0.1 0.3,-0.1 0.2,-0.1 0.3,-0.1 0.3,-0.2 0.1,-0.1 0.1,-0.2 0.1,-0.5 z m 2.4,6.1 c 0.1,0.2 0.3,0.2 0.7,0.2 0.3,0 0.6,-0.1 0.9,-0.3 0.3,-0.2 0.5,-0.5 0.7,-0.8 0.2,-0.3 0.3,-0.7 0.4,-1.2 0.1,-0.5 0.1,-1 0.1,-1.6 -0.1,-0.6 -0.2,-1.1 -0.3,-1.6 -0.2,-0.5 -0.4,-0.8 -0.6,-1.1 -0.2,-0.3 -0.5,-0.5 -0.8,-0.7 -0.3,-0.1 -0.6,-0.2 -1,-0.2 -0.2,0 -0.4,0 -0.5,0.1 -0.1,0 -0.2,0.1 -0.2,0.2 -0.1,0.1 -0.1,0.2 -0.1,0.2 0,0.1 0,0.2 0,0.3 l 0.5,5.5 c 0,0.5 0.1,0.9 0.2,1"
   id="path28" /><path
   class="st0"
   d="m 76.85,14.11547 c 0,0.1 0,0.2 -0.1,0.3 0,0.1 -0.1,0.1 -0.2,0.1 -0.1,0 -0.2,-0.1 -0.3,-0.3 -0.1,-0.2 -0.2,-0.4 -0.3,-0.6 -0.2,-0.4 -0.6,-0.6 -1.1,-0.6 -0.4,0 -0.6,0 -0.8,0.1 -0.1,0.1 -0.2,0.3 -0.2,0.5 l -0.2,1.9 c 0,0.1 0,0.2 0.1,0.3 0.1,0.1 0.2,0.1 0.4,0.1 0.3,0 0.5,0 0.6,0 0.2,0 0.3,-0.1 0.4,-0.2 0.1,-0.1 0.2,-0.2 0.2,-0.3 0,-0.1 0.1,-0.2 0.1,-0.3 0,-0.1 0.1,-0.1 0.1,-0.2 0,0 0.1,-0.1 0.2,-0.1 0.1,0 0.1,0 0.2,0.1 0,0.1 0.1,0.1 0,0.2 0,0.1 0,0.2 -0.1,0.3 0,0.2 -0.1,0.4 -0.1,0.7 0,0.3 -0.1,0.6 -0.1,0.8 0,0.2 0,0.4 0,0.6 0,0.2 -0.1,0.3 -0.3,0.3 -0.1,0 -0.2,-0.1 -0.2,-0.2 0,-0.1 -0.1,-0.3 -0.1,-0.5 -0.1,-0.2 -0.2,-0.4 -0.3,-0.5 -0.1,-0.1 -0.3,-0.2 -0.6,-0.2 -0.1,0 -0.1,0 -0.2,0 -0.1,0 -0.1,0 -0.2,0 h 0.1 c -0.1,0 -0.2,0.1 -0.2,0.2 l -0.2,2.1 c 0,0.2 0,0.4 0,0.6 0,0.2 0,0.3 0.1,0.4 0.1,0.1 0.1,0.2 0.3,0.3 0.1,0.1 0.3,0.1 0.5,0.1 0.3,0 0.5,0 0.8,-0.1 0.2,-0.1 0.4,-0.2 0.6,-0.4 0.1,-0.1 0.2,-0.3 0.3,-0.4 0.1,-0.1 0.1,-0.2 0.2,-0.3 0.1,-0.1 0.1,-0.2 0.2,-0.2 0.1,-0.1 0.1,-0.1 0.2,-0.1 0.2,0 0.2,0.2 0.2,0.4 0,0.1 -0.1,0.2 -0.1,0.3 l -0.3,1.1 c 0,0.1 -0.1,0.2 -0.1,0.3 -0.1,0.1 -0.2,0.1 -0.3,0.1 -0.1,0 -0.4,-0.1 -1,-0.2 -0.5,-0.1 -1.3,-0.2 -2.2,-0.3 -0.6,-0.1 -1,-0.1 -1.4,-0.1 -0.3,0 -0.5,0 -0.6,0 -0.2,0 -0.3,-0.1 -0.2,-0.3 0,-0.1 0,-0.2 0.1,-0.2 0.1,0 0.2,0 0.3,0 0.2,0 0.3,-0.1 0.4,-0.1 0.1,-0.1 0.1,-0.2 0.2,-0.4 l 0.6,-6 c 0,-0.2 0,-0.3 0,-0.4 -0.1,-0.1 -0.2,-0.2 -0.3,-0.2 -0.2,-0.1 -0.3,-0.1 -0.4,-0.1 -0.1,0 -0.1,-0.1 -0.1,-0.2 0,-0.2 0.1,-0.3 0.3,-0.2 0,0 0.2,0 0.6,0.1 0.3,0.1 0.9,0.1 1.6,0.2 0.8,0.1 1.4,0.1 1.9,0.1 0.5,0 0.8,0 1,0 0.1,0 0.2,0 0.3,0.1 0,0 0.1,0.1 0,0.2 z"
   id="path30" /><path
   class="st0"
   d="m 88.15,21.21547 c 0,0.1 0,0.1 0.1,0.1 0.1,0 0.1,0 0.1,0 l 2.5,-3 c 0.1,-0.1 0.2,-0.3 0.3,-0.4 0.1,-0.1 0.1,-0.2 0.1,-0.3 0,-0.1 0,-0.2 0,-0.3 -0.1,-0.1 -0.1,-0.2 -0.2,-0.2 -0.1,-0.1 -0.1,-0.1 -0.2,-0.2 -0.1,-0.1 -0.1,-0.2 0,-0.3 0.1,-0.2 0.2,-0.2 0.4,-0.1 0.1,0 0.2,0.1 0.3,0.2 0.1,0.1 0.3,0.1 0.5,0.2 0.2,0.1 0.3,0.1 0.4,0.1 0.1,0 0.2,0.1 0.3,0.1 0.2,0.1 0.3,0.2 0.2,0.4 0,0.1 -0.1,0.1 -0.1,0.2 0,0 -0.1,0 -0.2,0 -0.1,0 -0.1,0 -0.2,0 -0.1,0 -0.2,0 -0.2,0 -0.2,0 -0.3,0.2 -0.6,0.4 -0.2,0.2 -0.5,0.5 -0.8,0.9 l -2.7,3.1 c -0.3,0.3 -0.5,0.6 -0.7,0.8 -0.2,0.2 -0.3,0.4 -0.5,0.6 -0.1,0.1 -0.2,0.2 -0.3,0.3 -0.1,0.1 -0.2,0.1 -0.3,0 -0.1,0 -0.2,-0.1 -0.2,-0.2 0,-0.1 0,-0.2 0,-0.4 0,-0.2 0,-0.4 0,-0.6 0,-0.3 0,-0.6 0.1,-0.9 l 0.2,-5 c 0,-0.3 0,-0.6 0,-0.9 0,-0.2 0,-0.4 -0.1,-0.5 0,-0.1 -0.1,-0.1 -0.1,-0.2 0,0 -0.1,-0.1 -0.1,-0.1 0,0 -0.1,-0.1 -0.1,-0.1 0,0 0,-0.1 0,-0.2 0,-0.1 0.1,-0.1 0.1,-0.1 0.1,0 0.1,0 0.2,0 0,0 0.2,0.1 0.4,0.2 0.2,0.1 0.5,0.2 0.9,0.4 0.4,0.1 0.7,0.3 0.9,0.3 0.2,0.1 0.4,0.1 0.5,0.1 0.2,0.1 0.2,0.2 0.2,0.3 0,0.1 -0.1,0.2 -0.2,0.2 -0.1,0 -0.2,0 -0.3,0 -0.1,0 -0.2,0 -0.3,0 -0.1,0 -0.1,0 -0.2,0.1 0,0 0,0.1 0,0.1 0,0 0,0.1 0,0.1 z"
   id="path32" /><path
   class="st0"
   d="m 94.25,26.31547 c -0.1,0.2 -0.1,0.3 -0.1,0.4 0,0.1 0.1,0.2 0.2,0.3 0.1,0.1 0.2,0.2 0.2,0.2 0,0 0,0.1 0,0.2 -0.1,0.2 -0.2,0.2 -0.4,0.1 -0.1,0 -0.2,-0.1 -0.4,-0.3 -0.2,-0.2 -0.5,-0.3 -0.9,-0.6 -0.4,-0.2 -0.7,-0.4 -0.9,-0.5 -0.2,-0.1 -0.4,-0.1 -0.4,-0.2 -0.1,-0.1 -0.2,-0.2 -0.1,-0.4 0,-0.1 0.1,-0.1 0.2,-0.1 0.1,0 0.2,0 0.3,0.1 0.2,0.1 0.3,0.1 0.4,0 0.1,0 0.2,-0.2 0.3,-0.4 l 3,-5.2 c 0.1,-0.2 0.1,-0.3 0.1,-0.4 0,-0.1 -0.1,-0.2 -0.2,-0.3 -0.1,-0.1 -0.2,-0.2 -0.3,-0.2 -0.1,-0.1 -0.1,-0.1 0,-0.2 0.1,-0.2 0.2,-0.2 0.4,-0.1 0,0 0.2,0.1 0.4,0.3 0.2,0.1 0.5,0.3 0.9,0.6 0.4,0.2 0.7,0.4 0.9,0.5 0.2,0.1 0.4,0.2 0.4,0.2 0.1,0.1 0.2,0.2 0.1,0.4 0,0.1 -0.1,0.1 -0.2,0.1 -0.1,0 -0.1,0 -0.3,-0.1 -0.2,-0.1 -0.3,-0.1 -0.4,-0.1 -0.1,0 -0.2,0.2 -0.3,0.4 z"
   id="path34" /><path
   class="st0"
   d="m 99.55,29.41547 c -0.3,0.3 -0.4,0.6 -0.4,0.8 0,0.2 0.1,0.4 0.3,0.6 0.2,0.1 0.4,0.2 0.6,0.3 0.2,0.1 0.5,0.1 0.7,0 0.2,0 0.3,-0.1 0.4,-0.1 0.1,-0.1 0.3,-0.1 0.4,-0.2 0.1,0 0.2,-0.1 0.3,-0.1 0.1,0 0.2,0 0.2,0 0,0 0.1,0.1 0.1,0.1 0,0.1 0,0.1 -0.1,0.2 0,0 -0.1,0.1 -0.3,0.3 l -0.8,0.8 c -0.1,0.1 -0.2,0.2 -0.3,0.2 -0.1,0 -0.2,0 -0.3,-0.1 -0.2,-0.1 -0.4,-0.4 -0.8,-0.7 -0.4,-0.4 -0.9,-0.8 -1.6,-1.3 -0.4,-0.3 -0.6,-0.5 -0.8,-0.6 -0.2,-0.1 -0.3,-0.2 -0.4,-0.2 -0.1,-0.1 -0.1,-0.2 0,-0.4 0.1,-0.1 0.1,-0.1 0.2,-0.1 0.1,0 0.2,0.1 0.3,0.1 0.2,0.1 0.3,0.1 0.4,0.1 0.1,0 0.2,-0.1 0.4,-0.3 l 3.7,-4.7 c 0.1,-0.2 0.2,-0.3 0.2,-0.4 0,-0.1 0,-0.2 -0.1,-0.3 -0.1,-0.1 -0.2,-0.2 -0.2,-0.3 0,-0.1 0,-0.1 0,-0.2 0.1,-0.1 0.2,-0.2 0.4,-0.1 0,0 0.1,0.1 0.3,0.3 0.2,0.2 0.4,0.4 0.8,0.7 0.4,0.3 0.6,0.5 0.9,0.6 0.2,0.1 0.4,0.2 0.4,0.3 0.1,0.1 0.2,0.2 0,0.4 -0.1,0.1 -0.1,0.1 -0.2,0.1 -0.1,0 -0.2,-0.1 -0.3,-0.1 -0.2,-0.1 -0.3,-0.2 -0.5,-0.1 -0.1,0 -0.3,0.1 -0.4,0.3 z"
   id="path36" /><path
   class="st0"
   d="m 107.55,37.11547 c -0.3,0.5 -0.4,0.9 -0.4,1.2 0,0.1 0,0.1 0.1,0.2 0,0.1 0.1,0.1 0.1,0.2 0,0.1 0,0.1 0,0.2 0,0.1 0,0.1 -0.1,0.2 -0.1,0.1 -0.1,0.1 -0.2,0.1 -0.1,0 -0.1,-0.1 -0.2,-0.2 -0.1,-0.1 -0.2,-0.2 -0.3,-0.4 -0.1,-0.2 -0.3,-0.4 -0.6,-0.7 -0.2,-0.3 -0.4,-0.5 -0.6,-0.6 -0.2,-0.2 -0.4,-0.3 -0.5,-0.4 -0.1,-0.2 -0.1,-0.3 0,-0.4 0.1,-0.1 0.2,-0.1 0.3,-0.1 0.1,0 0.1,0.1 0.2,0.1 0.1,0.1 0.1,0.1 0.2,0.1 0.1,0 0.2,0 0.3,-0.1 0,0 0.1,-0.1 0.2,-0.2 l 0.8,-1.3 c 0.1,-0.1 0.1,-0.3 0,-0.4 -0.1,-0.1 -0.3,-0.4 -0.6,-0.7 -0.2,-0.2 -0.3,-0.3 -0.4,-0.4 -0.1,-0.1 -0.2,-0.2 -0.2,-0.2 -0.1,0 -0.1,0 -0.2,0 -0.1,0 -0.1,0 -0.2,0.1 -0.6,0.3 -0.9,0.5 -1.1,0.6 -0.1,0.1 -0.2,0.2 -0.2,0.3 0,0.1 0,0.3 0.1,0.5 0.1,0.2 0.1,0.3 0.2,0.4 0.1,0.1 0,0.2 -0.1,0.3 -0.1,0.1 -0.3,0.1 -0.4,0 0,0 -0.1,-0.1 -0.2,-0.3 -0.1,-0.2 -0.3,-0.4 -0.5,-0.7 -0.2,-0.2 -0.3,-0.4 -0.5,-0.4 -0.1,-0.1 -0.2,-0.1 -0.2,-0.2 -0.1,-0.1 -0.1,-0.3 0,-0.4 0.1,-0.1 0.2,-0.1 0.3,-0.1 0.1,0 0.2,0.1 0.3,0.1 0.1,0 0.2,0.1 0.4,0 0.1,0 0.3,-0.1 0.5,-0.2 l 6.5,-2.9 c 0.2,-0.1 0.4,-0.1 0.5,-0.1 0.1,0 0.2,0.1 0.3,0.2 0.1,0.1 0.2,0.2 0.1,0.3 0,0.1 -0.1,0.2 -0.2,0.4 z m 1,-5.4 c 0,0 -0.1,0 -0.2,0 l -2,1 c -0.1,0 -0.1,0 -0.1,0 0,0 0,0.1 0,0.1 l 0.9,1 c 0.1,0.1 0.1,0.1 0.1,0 0,0 0.1,-0.1 0.1,-0.1 l 1.1,-1.9 c 0.1,0 0.1,0 0.1,-0.1"
   id="path38" /><path
   class="st0"
   d="m 115.05,46.61547 c 0,0 -0.1,0.1 0,0.1 0,0.1 0.1,0.1 0.1,0.1 l 3.8,-0.5 c 0.2,0 0.3,-0.1 0.5,-0.1 0.1,0 0.2,-0.1 0.3,-0.1 0.1,-0.1 0.2,-0.1 0.2,-0.2 0,-0.1 0,-0.2 0,-0.3 0,-0.1 0,-0.2 0,-0.3 0,-0.1 0.1,-0.2 0.2,-0.2 0.2,-0.1 0.3,0 0.4,0.2 0,0.1 0.1,0.2 0.1,0.3 0,0.1 0.1,0.3 0.2,0.5 0.1,0.2 0.2,0.3 0.2,0.4 0.1,0.1 0.1,0.2 0.2,0.3 0.1,0.2 0.1,0.3 -0.1,0.4 -0.1,0 -0.1,0.1 -0.2,0 -0.1,0 -0.1,0 -0.1,-0.1 0,0 -0.1,-0.1 -0.1,-0.1 -0.1,-0.1 -0.1,-0.1 -0.2,-0.1 -0.1,-0.1 -0.4,-0.1 -0.7,-0.1 -0.3,0 -0.7,0.1 -1.2,0.1 l -4.1,0.5 c -0.4,0 -0.7,0.1 -1,0.1 -0.3,0 -0.5,0.1 -0.7,0.1 -0.2,0 -0.3,0 -0.4,0 -0.1,0 -0.2,-0.1 -0.2,-0.2 0,-0.1 0,-0.2 0,-0.3 0,-0.1 0.1,-0.2 0.2,-0.3 0.1,-0.1 0.3,-0.3 0.4,-0.4 0.2,-0.2 0.4,-0.4 0.7,-0.6 l 3.5,-3.5 c 0.2,-0.2 0.4,-0.5 0.6,-0.6 0.2,-0.2 0.2,-0.3 0.3,-0.4 0,-0.1 0,-0.2 0,-0.2 0,-0.1 0,-0.1 0,-0.2 0,-0.1 0,-0.1 0,-0.2 0,0 0.1,-0.1 0.1,-0.1 0.1,0 0.1,0 0.2,0 0.1,0 0.1,0.1 0.1,0.1 0,0 0.1,0.2 0.1,0.4 0.1,0.2 0.2,0.5 0.4,0.9 0.2,0.4 0.3,0.6 0.5,0.8 0.1,0.2 0.2,0.3 0.3,0.4 0.1,0.2 0,0.3 -0.1,0.4 -0.1,0.1 -0.2,0.1 -0.3,0 -0.1,-0.1 -0.2,-0.1 -0.2,-0.2 -0.1,-0.1 -0.1,-0.1 -0.2,-0.2 -0.1,-0.1 -0.1,-0.1 -0.2,0 0,0 -0.1,0 -0.1,0.1 0,0 -0.1,0.1 -0.1,0.1 z"
   id="path40" /><path
   class="st0"
   d="m 122.35,55.81547 c -0.1,0 -0.2,0.1 -0.3,0.1 -0.1,0 -0.1,0 -0.2,-0.1 0,-0.1 0,-0.2 0.1,-0.3 0.1,-0.1 0.3,-0.3 0.5,-0.5 0.3,-0.3 0.3,-0.7 0.2,-1.3 -0.1,-0.4 -0.2,-0.6 -0.4,-0.7 -0.2,-0.1 -0.3,-0.1 -0.6,0 l -1.8,0.5 c -0.1,0 -0.2,0.1 -0.2,0.2 0,0.1 0,0.2 0.1,0.4 0.1,0.3 0.2,0.5 0.2,0.6 0.1,0.1 0.2,0.2 0.3,0.3 0.2,0 0.3,0.1 0.4,0.1 0.1,0 0.2,0 0.3,0 0.1,0 0.1,0 0.2,0 0.1,0 0.1,0.1 0.1,0.1 0,0.1 0,0.1 0,0.2 0,0.1 -0.1,0.1 -0.2,0.1 -0.1,0 -0.2,0 -0.3,0.1 -0.2,0 -0.4,0.1 -0.7,0.2 -0.3,0.1 -0.6,0.2 -0.8,0.3 -0.2,0.1 -0.4,0.1 -0.6,0.2 -0.2,0.1 -0.3,0 -0.3,-0.1 0,-0.1 0,-0.2 0.1,-0.3 0.1,-0.1 0.3,-0.2 0.4,-0.3 0.2,-0.2 0.3,-0.3 0.4,-0.5 0.1,-0.2 0,-0.4 0,-0.6 0,-0.1 0,-0.1 0,-0.2 0,-0.1 0,-0.1 -0.1,-0.2 l -0.1,-0.1 c 0,-0.1 -0.1,-0.1 -0.2,-0.1 l -2,0.6 c -0.2,0.1 -0.4,0.1 -0.6,0.2 -0.2,0.1 -0.3,0.1 -0.4,0.2 -0.1,0.1 -0.1,0.2 -0.2,0.4 0,0.1 0,0.3 0.1,0.6 0.1,0.3 0.2,0.5 0.4,0.7 0.2,0.2 0.4,0.3 0.6,0.4 0.2,0.1 0.3,0.1 0.5,0.1 0.1,0 0.3,0 0.4,0.1 0.1,0 0.2,0 0.3,0.1 0.1,0 0.1,0.1 0.1,0.1 0,0.2 -0.1,0.3 -0.3,0.4 -0.1,0 -0.2,0 -0.3,0 l -1.1,0.2 c -0.1,0 -0.3,0 -0.3,0 -0.1,0 -0.1,-0.1 -0.2,-0.2 0,-0.1 -0.1,-0.4 -0.2,-0.9 -0.1,-0.5 -0.3,-1.3 -0.6,-2.2 -0.2,-0.6 -0.3,-1 -0.4,-1.3 -0.1,-0.3 -0.2,-0.5 -0.2,-0.6 -0.1,-0.2 0,-0.3 0.2,-0.4 0.1,0 0.2,0 0.2,0 0,0.1 0.1,0.2 0.2,0.3 0.1,0.2 0.2,0.3 0.3,0.3 0.1,0 0.3,0 0.5,0 l 5.8,-1.7 c 0.2,-0.1 0.3,-0.1 0.4,-0.2 0.1,-0.1 0.1,-0.2 0.1,-0.4 0,-0.2 0,-0.3 0,-0.4 0,-0.1 0,-0.2 0.2,-0.2 0.2,-0.1 0.3,0 0.3,0.2 0,0 0.1,0.2 0.1,0.6 0.1,0.3 0.2,0.8 0.4,1.5 0.2,0.7 0.4,1.4 0.6,1.8 0.2,0.5 0.3,0.8 0.3,1 0,0.1 0,0.2 0,0.3 0,0.1 -0.1,0.1 -0.2,0.1 z"
   id="path42" /><path
   class="st0"
   d="m 118.35,62.71547 c -0.4,0.1 -0.7,0.1 -0.8,0.2 -0.1,0.1 -0.2,0.3 -0.2,0.6 0,0.2 0.1,0.4 0.2,0.6 0.1,0.2 0.3,0.4 0.5,0.5 0.1,0.1 0.3,0.2 0.4,0.2 0.1,0.1 0.3,0.1 0.4,0.1 0.1,0 0.2,0.1 0.3,0.1 0.1,0 0.1,0.1 0.1,0.2 0,0.1 0,0.1 0,0.1 0,0 -0.1,0.1 -0.2,0.1 -0.1,0 -0.2,0 -0.4,0 h -1.1 c -0.2,0 -0.3,0 -0.3,-0.1 -0.1,0 -0.1,-0.1 -0.1,-0.3 0,-0.2 0,-0.6 -0.1,-1.1 0,-0.5 -0.1,-1.2 -0.2,-2.1 -0.1,-0.4 -0.1,-0.8 -0.2,-1 -0.1,-0.2 -0.1,-0.4 -0.1,-0.4 0,-0.2 0.1,-0.3 0.3,-0.3 0.1,0 0.2,0 0.2,0.1 0,0.1 0.1,0.1 0.1,0.3 0.1,0.2 0.1,0.3 0.2,0.3 0.1,0.1 0.2,0.1 0.5,0 l 6,-0.7 c 0.2,0 0.3,-0.1 0.4,-0.1 0.1,-0.1 0.1,-0.2 0.2,-0.3 0,-0.2 0,-0.3 0,-0.4 0,-0.1 0.1,-0.1 0.2,-0.1 0.2,0 0.3,0 0.3,0.2 0,0.1 0,0.2 0,0.4 0,0.2 0,0.6 0.1,1 0.1,0.4 0.1,0.8 0.2,1.1 0.1,0.3 0.1,0.4 0.1,0.5 0,0.2 -0.1,0.3 -0.3,0.3 -0.1,0 -0.2,0 -0.2,-0.1 0,-0.1 -0.1,-0.1 -0.1,-0.3 -0.1,-0.2 -0.1,-0.4 -0.2,-0.4 -0.1,-0.1 -0.3,-0.1 -0.5,-0.1 z"
   id="path44" /><path
   class="st0"
   d="m 122.05,70.81547 c -0.1,0 -0.2,0 -0.2,0.1 l -0.1,2.2 c 0,0.1 0.1,0.2 0.2,0.2 l 2.2,0.1 c 0.2,0 0.3,0 0.4,-0.1 0.1,-0.1 0.2,-0.2 0.2,-0.3 0,-0.1 0.1,-0.3 0.1,-0.3 0,-0.1 0.1,-0.1 0.2,-0.1 0.2,0 0.3,0.1 0.3,0.3 0,0.1 0,0.2 -0.1,0.4 0,0.2 -0.1,0.6 -0.1,1 0,0.5 0,0.8 0,1 0,0.2 0,0.4 0,0.4 0,0.2 -0.1,0.2 -0.3,0.2 -0.1,0 -0.2,0 -0.2,-0.1 0,-0.1 0,-0.2 -0.1,-0.3 0,-0.2 -0.1,-0.3 -0.1,-0.4 -0.1,-0.1 -0.2,-0.1 -0.5,-0.1 l -6,-0.4 c -0.2,0 -0.3,0 -0.4,0.1 -0.1,0 -0.2,0.1 -0.2,0.3 0,0.2 -0.1,0.3 -0.1,0.3 0,0.1 -0.1,0.1 -0.2,0.1 -0.2,0 -0.3,-0.1 -0.3,-0.3 0,-0.1 0,-0.2 0.1,-0.4 0.1,-0.2 0.1,-0.6 0.1,-1 0,-0.5 0,-0.8 0,-1 0,-0.2 0,-0.4 0,-0.5 0,-0.2 0.1,-0.2 0.3,-0.2 0.1,0 0.2,0 0.2,0.1 0,0 0,0.1 0,0.3 0,0.2 0.1,0.3 0.1,0.4 0.1,0.1 0.2,0.1 0.5,0.1 l 2.9,0.2 c 0.1,0 0.2,0 0.2,-0.1 l 0.1,-2.2 c 0,-0.1 -0.1,-0.2 -0.2,-0.2 l -2.9,-0.2 c -0.2,0 -0.3,0 -0.4,0.1 -0.1,0.1 -0.2,0.2 -0.2,0.3 0,0.1 -0.1,0.3 -0.1,0.3 0,0.1 -0.1,0.1 -0.2,0.1 -0.2,0 -0.3,-0.1 -0.3,-0.3 0,-0.1 0,-0.2 0.1,-0.4 0.1,-0.2 0.1,-0.6 0.1,-1 0,-0.5 0,-0.8 0,-1 0,-0.2 0,-0.4 0,-0.5 0,-0.2 0.1,-0.2 0.3,-0.2 0.1,0 0.2,0 0.2,0.1 0,0.1 0,0.2 0.1,0.3 0,0.2 0.1,0.3 0.1,0.4 0.1,0.1 0.2,0.1 0.5,0.1 l 6,0.4 c 0.2,0 0.3,0 0.4,-0.1 0.1,0 0.2,-0.1 0.2,-0.3 0,-0.1 0.1,-0.3 0.1,-0.3 0,-0.1 0.1,-0.1 0.2,-0.1 0.2,0 0.3,0.1 0.3,0.3 0,0.1 0,0.2 -0.1,0.4 0,0.2 -0.1,0.6 -0.1,1 0,0.5 0,0.8 0,1 0,0.2 0,0.4 0,0.4 0,0.2 -0.1,0.2 -0.3,0.2 -0.1,0 -0.2,0 -0.2,-0.1 0,-0.1 0,-0.1 0,-0.3 0,-0.2 -0.1,-0.3 -0.2,-0.4 -0.1,-0.1 -0.2,-0.1 -0.5,-0.1 z"
   id="path46" /><path
   class="st0"
   d="m 116.45,83.81547 c -0.6,0 -1,0.1 -1.2,0.3 0,0 -0.1,0.1 -0.1,0.2 0,0.1 -0.1,0.1 -0.1,0.2 0,0.1 -0.1,0.1 -0.1,0.1 0,0 -0.1,0 -0.2,0 -0.1,0 -0.1,-0.1 -0.2,-0.1 0,-0.1 0,-0.2 0,-0.3 0,-0.1 0.1,-0.2 0.2,-0.5 0.1,-0.2 0.2,-0.5 0.3,-0.9 0.1,-0.3 0.1,-0.6 0.2,-0.9 0,-0.3 0.1,-0.5 0.1,-0.6 0.1,-0.2 0.2,-0.3 0.3,-0.2 0.1,0 0.2,0.1 0.2,0.2 0,0.1 0,0.2 0,0.3 0,0.1 0,0.2 0,0.3 0,0.1 0.1,0.1 0.2,0.2 0.1,0 0.1,0 0.2,0 l 1.5,-0.1 c 0.2,0 0.3,-0.1 0.3,-0.2 0.1,-0.1 0.1,-0.4 0.3,-0.8 0.1,-0.2 0.1,-0.4 0.1,-0.5 0,-0.1 0,-0.2 0,-0.3 0,-0.1 0,-0.1 -0.1,-0.2 0,0 -0.1,-0.1 -0.2,-0.1 -0.5,-0.3 -0.9,-0.5 -1.1,-0.6 -0.2,0 -0.3,0 -0.4,0 -0.1,0 -0.2,0.1 -0.3,0.3 -0.1,0.2 -0.2,0.3 -0.3,0.4 -0.1,0.1 -0.2,0.1 -0.3,0.1 -0.2,0 -0.2,-0.2 -0.2,-0.3 0,0 0.1,-0.1 0.1,-0.3 0.1,-0.2 0.2,-0.5 0.3,-0.8 0.1,-0.3 0.1,-0.5 0.1,-0.6 0,-0.1 0,-0.2 0,-0.3 0,-0.2 0.1,-0.2 0.3,-0.2 0.1,0 0.2,0.1 0.2,0.2 0,0.1 0,0.2 0.1,0.4 0,0.1 0.1,0.2 0.2,0.3 0.1,0.1 0.2,0.2 0.4,0.3 l 5.9,3.8 c 0.2,0.1 0.3,0.2 0.4,0.3 0,0.1 0,0.2 0,0.3 0,0.2 -0.1,0.2 -0.2,0.3 -0.1,0 -0.2,0.1 -0.5,0.1 z m 5,-2.1 c 0,0 0,-0.1 -0.1,-0.1 l -1.9,-1.2 c 0,0 -0.1,0 -0.1,0 0,0 -0.1,0 -0.1,0.1 l -0.3,1.3 c 0,0.1 0,0.1 0,0.1 0.1,0 0.1,0 0.1,0 l 2.2,-0.1 c 0.2,-0.1 0.2,-0.1 0.2,-0.1"
   id="path48" /><polygon
   class="st0"
   points="32,103 30.3,101.7 28.5,103 29.2,100.9 27.5,99.7 29.6,99.7 30.3,97.6 30.9,99.7 33.1,99.7 31.4,100.9 "
   id="polygon50"
   transform="translate(-6.15,-4.5845299)" /><polygon
   class="st0"
   points="121.9,103 120.1,101.7 118.4,103 119,100.9 117.3,99.7 119.5,99.7 120.1,97.6 120.8,99.7 122.9,99.7 121.2,100.9 "
   id="polygon52"
   transform="translate(-6.15,-4.5845299)" /><path
   class="st0"
   d="m 72.15,119.81547 h -2.8 c 0,0 -0.8,-2.4 -0.9,-2.7 0,-0.1 -0.2,-0.2 -0.3,-0.2 -0.1,0 -0.2,0 -0.3,0.2 -0.1,0.3 -0.9,2.7 -0.9,2.7 h -2.8 c -0.3,0 -0.4,0.4 -0.2,0.5 0.2,0.1 2.3,1.7 2.3,1.7 0,0 -0.8,2.4 -0.9,2.7 -0.1,0.3 0.2,0.5 0.4,0.3 0.2,-0.2 2.3,-1.7 2.3,-1.7 0,0 2.1,1.5 2.3,1.7 0.2,0.1 0.5,0 0.4,-0.3 -0.1,-0.3 -0.9,-2.7 -0.9,-2.7 0,0 2.1,-1.5 2.3,-1.7 0.4,-0.1 0.3,-0.5 0,-0.5"
   id="path54" /><path
   class="st0"
   d="m 51.45,118.71547 c 3.4,1.1 7,1.9 10.7,2.4 0.5,0.1 0.4,-0.2 0.2,-0.4 -0.2,-0.1 -0.5,-0.4 -0.7,-0.5 -0.1,-0.1 -0.3,-0.1 -0.4,-0.2 -3.2,-0.4 -5.9,-1.1 -8.9,-2.1 -0.3,-0.1 -0.4,0 -0.5,0.1 -0.1,0.1 -0.2,0.2 -0.3,0.2 -0.3,0.2 -0.3,0.3 -0.1,0.5"
   id="path56" /><path
   class="st0"
   d="m 89.35,115.91547 c -4.5,2 -9.1,3.3 -14.1,4 -0.1,0 -0.4,0.1 -0.6,0.2 -0.2,0.1 -0.4,0.3 -0.6,0.5 -0.4,0.3 -0.1,0.4 0.2,0.4 5.5,-0.6 10.7,-2.1 15.6,-4.3 0.3,-0.2 0.1,-0.5 0.1,-0.5 l -0.2,-0.3 c 0,0.1 -0.2,-0.1 -0.4,0"
   id="path58" /><path
   class="st0"
   d="m 30.25,107.11547 c -0.3,0.3 -0.5,0.6 -0.7,0.8 -0.2,0.3 -0.3,0.5 -0.4,0.7 -0.1,0.2 0,0.5 0,0.7 0.1,0.2 0.2,0.4 0.5,0.7 0.5,0.5 1,0.6 1.6,0.5 0.3,-0.1 0.5,-0.2 0.8,-0.4 0.2,-0.2 0.5,-0.5 0.9,-0.8 l 1.1,-1.2 c 0.6,-0.6 1,-1.1 1.3,-1.5 0.3,-0.4 0.5,-0.7 0.5,-0.9 0,-0.1 0,-0.2 -0.1,-0.2 -0.1,-0.1 -0.1,-0.1 -0.2,-0.2 -0.1,-0.1 -0.1,-0.1 -0.1,-0.2 0,-0.1 0,-0.1 0.1,-0.2 0.1,-0.1 0.3,-0.1 0.4,0.1 0.1,0.1 0.2,0.2 0.3,0.3 0.1,0.1 0.2,0.3 0.4,0.4 0.1,0.1 0.3,0.2 0.4,0.3 0.1,0.1 0.2,0.2 0.3,0.3 0.1,0.1 0.1,0.2 0.2,0.2 0,0.1 0,0.1 -0.1,0.2 -0.1,0.1 -0.1,0.1 -0.2,0.1 -0.1,0 -0.1,0 -0.2,-0.1 -0.1,-0.1 -0.1,-0.1 -0.2,-0.2 -0.1,-0.1 -0.2,-0.1 -0.2,-0.1 -0.2,0 -0.5,0.2 -0.8,0.5 -0.4,0.3 -0.8,0.8 -1.4,1.4 l -1.1,1.1 c -0.4,0.4 -0.7,0.7 -1,0.9 -0.3,0.3 -0.6,0.4 -1,0.5 -0.4,0.1 -0.8,0.1 -1.2,-0.1 -0.4,-0.1 -0.8,-0.4 -1.2,-0.8 -0.4,-0.4 -0.8,-0.8 -0.9,-1.2 -0.2,-0.4 -0.3,-0.8 -0.2,-1.2 0,-0.3 0.2,-0.6 0.4,-0.9 0.2,-0.3 0.4,-0.5 0.7,-0.8 l 3.1,-3.3 c 0.1,-0.1 0.2,-0.3 0.2,-0.4 0,-0.1 0,-0.2 -0.1,-0.4 -0.1,-0.1 -0.1,-0.2 -0.2,-0.3 0,-0.1 0,-0.1 0.1,-0.2 0.1,-0.1 0.3,-0.2 0.4,0 0,0 0.1,0.2 0.3,0.3 0.2,0.2 0.4,0.4 0.7,0.8 0.3,0.3 0.5,0.5 0.7,0.6 0.2,0.1 0.3,0.2 0.3,0.3 0.1,0.1 0.1,0.2 0,0.4 -0.1,0.1 -0.1,0.1 -0.2,0.1 -0.1,0 -0.1,-0.1 -0.2,-0.1 -0.2,-0.1 -0.3,-0.2 -0.4,-0.2 -0.1,0 -0.2,0.1 -0.4,0.3 z"
   id="path60" /><path
   class="st0"
   d="m 38.35,113.71547 c 0,0 0,0.1 0,0.1 0.1,0 0.1,0 0.2,0 l 3.1,-2.3 c 0.1,-0.1 0.3,-0.2 0.4,-0.3 0.1,-0.1 0.2,-0.2 0.2,-0.2 0.1,-0.1 0.1,-0.2 0.1,-0.3 0,-0.1 -0.1,-0.2 -0.1,-0.3 -0.1,-0.1 -0.1,-0.2 -0.2,-0.2 0,-0.1 0,-0.2 0,-0.3 0.1,-0.1 0.2,-0.2 0.4,0 0.1,0.1 0.2,0.1 0.3,0.2 0.1,0.1 0.2,0.2 0.4,0.3 0.1,0.1 0.3,0.2 0.4,0.2 0.1,0.1 0.2,0.1 0.3,0.2 0.2,0.1 0.2,0.3 0.1,0.4 -0.1,0.1 -0.1,0.1 -0.2,0.1 -0.1,0 -0.1,0 -0.2,0 -0.1,0 -0.1,0 -0.2,-0.1 -0.1,0 -0.1,0 -0.2,0 -0.2,0 -0.4,0.1 -0.6,0.3 -0.3,0.2 -0.6,0.4 -1,0.7 l -3.3,2.5 c -0.3,0.2 -0.6,0.4 -0.8,0.6 -0.2,0.2 -0.4,0.3 -0.6,0.4 -0.2,0.1 -0.3,0.2 -0.4,0.2 -0.1,0 -0.2,0 -0.3,0 -0.1,-0.1 -0.1,-0.1 -0.1,-0.2 0,-0.1 0,-0.2 0.1,-0.4 0,-0.2 0.1,-0.4 0.2,-0.6 0.1,-0.2 0.2,-0.5 0.3,-0.9 l 1.3,-4.8 c 0.1,-0.3 0.2,-0.6 0.2,-0.8 0.1,-0.2 0.1,-0.4 0,-0.5 0,-0.1 -0.1,-0.1 -0.1,-0.2 0,-0.1 -0.1,-0.1 -0.1,-0.2 0,0 0,-0.1 -0.1,-0.1 0,-0.1 0,-0.1 0.1,-0.2 0,-0.1 0.1,-0.1 0.2,-0.1 0.1,0 0.1,0 0.2,0 0,0 0.1,0.1 0.3,0.3 0.2,0.2 0.4,0.3 0.8,0.6 0.3,0.2 0.6,0.4 0.8,0.5 0.2,0.1 0.4,0.2 0.4,0.2 0.2,0.1 0.2,0.2 0.1,0.4 -0.1,0.1 -0.2,0.2 -0.2,0.1 -0.1,0 -0.2,0 -0.3,-0.1 -0.1,0 -0.2,-0.1 -0.3,-0.1 -0.1,0 -0.2,0 -0.2,0.1 0,0 0,0.1 -0.1,0.1 0,0 0,0.1 0,0.1 z"
   id="path62" /><path
   class="st0"
   d="m 45.35,117.71547 c 0,0.1 0,0.1 0,0.1 0.1,0 0.1,0 0.1,0 l 2.7,-2.8 c 0.1,-0.1 0.2,-0.3 0.3,-0.4 0.1,-0.1 0.1,-0.2 0.2,-0.2 0.1,-0.1 0.1,-0.2 0,-0.3 0,-0.1 -0.1,-0.2 -0.2,-0.2 -0.1,-0.1 -0.1,-0.1 -0.2,-0.2 -0.1,-0.1 -0.1,-0.2 0,-0.3 0.1,-0.2 0.2,-0.2 0.4,-0.1 0.1,0 0.2,0.1 0.3,0.2 0.1,0.1 0.3,0.2 0.4,0.2 0.2,0.1 0.3,0.1 0.4,0.2 0.1,0 0.2,0.1 0.3,0.1 0.2,0.1 0.3,0.2 0.2,0.4 0,0.1 -0.1,0.1 -0.1,0.1 0,0 -0.1,0 -0.2,0 -0.1,0 -0.1,0 -0.2,0 -0.1,0 -0.2,0 -0.2,0 -0.2,0 -0.4,0.1 -0.6,0.4 -0.2,0.2 -0.5,0.5 -0.9,0.8 l -2.9,2.9 c -0.3,0.3 -0.5,0.5 -0.7,0.7 -0.2,0.2 -0.4,0.4 -0.5,0.5 -0.1,0.1 -0.3,0.2 -0.4,0.3 -0.1,0 -0.2,0 -0.3,0 -0.1,0 -0.1,-0.1 -0.2,-0.2 0,-0.1 0,-0.2 0,-0.4 0,-0.2 0,-0.4 0.1,-0.6 0,-0.3 0.1,-0.6 0.1,-0.9 l 0.6,-4.9 c 0,-0.3 0.1,-0.6 0.1,-0.8 0,-0.2 0,-0.4 0,-0.5 0,-0.1 -0.1,-0.1 -0.1,-0.2 0,0 -0.1,-0.1 -0.1,-0.1 0,0 -0.1,-0.1 -0.1,-0.1 0,0 0,-0.1 0,-0.2 0,-0.1 0.1,-0.1 0.1,-0.1 0.1,0 0.1,0 0.2,0 0,0 0.2,0.1 0.3,0.2 0.2,0.1 0.5,0.3 0.9,0.5 0.4,0.2 0.7,0.3 0.9,0.4 0.2,0.1 0.4,0.1 0.5,0.2 0.2,0.1 0.2,0.2 0.1,0.3 -0.1,0.1 -0.1,0.2 -0.2,0.2 -0.1,0 -0.2,0 -0.3,0 -0.1,0 -0.2,0 -0.3,0 -0.1,0 -0.2,0 -0.2,0.1 0,0 0,0.1 0,0.1 0,0 0,0.1 0,0.1 z"
   id="path64" /><path
   class="st0"
   d="m 97.75,110.01547 c 0.1,0.1 0.1,0.2 0.1,0.3 0,0.1 0,0.1 -0.1,0.2 -0.1,0.1 -0.2,0 -0.4,0 -0.1,-0.1 -0.4,-0.2 -0.6,-0.3 -0.4,-0.2 -0.8,-0.1 -1.3,0.2 -0.3,0.2 -0.5,0.4 -0.5,0.6 0,0.2 0,0.4 0.1,0.5 l 1,1.6 c 0.1,0.1 0.1,0.2 0.2,0.2 0.1,0 0.2,-0.1 0.4,-0.2 0.2,-0.1 0.4,-0.3 0.5,-0.4 0.1,-0.1 0.2,-0.2 0.2,-0.4 0,-0.2 0,-0.3 0,-0.4 0,-0.1 -0.1,-0.2 -0.1,-0.3 0,-0.1 0,-0.1 0,-0.2 0,-0.1 0,-0.1 0.1,-0.1 0.1,0 0.1,0 0.2,0 0.1,0 0.1,0.1 0.2,0.2 0,0 0.1,0.1 0.2,0.3 0.1,0.2 0.2,0.4 0.4,0.6 0.2,0.3 0.3,0.5 0.5,0.7 0.1,0.2 0.2,0.4 0.3,0.5 0.1,0.2 0.1,0.3 0,0.4 -0.1,0.1 -0.2,0.1 -0.3,0 -0.1,-0.1 -0.2,-0.2 -0.4,-0.3 -0.2,-0.1 -0.4,-0.2 -0.5,-0.2 -0.2,0 -0.4,0.1 -0.6,0.2 0,0 -0.1,0.1 -0.1,0.1 0,0 -0.1,0.1 -0.1,0.1 l -0.1,0.1 c -0.1,0.1 -0.1,0.2 0,0.2 l 1.1,1.8 c 0.1,0.2 0.2,0.3 0.3,0.5 0.1,0.1 0.2,0.2 0.3,0.3 0.1,0.1 0.2,0.1 0.4,0.1 0.1,0 0.3,-0.1 0.5,-0.2 0.2,-0.1 0.4,-0.3 0.5,-0.5 0.1,-0.2 0.2,-0.4 0.2,-0.7 0,-0.2 0,-0.4 0,-0.5 0,-0.1 0,-0.3 0,-0.4 0,-0.1 0,-0.2 0,-0.3 0,-0.1 0,-0.1 0.1,-0.2 0.1,-0.1 0.3,0 0.4,0.2 0,0.1 0.1,0.2 0.1,0.3 l 0.5,1 c 0.1,0.1 0.1,0.2 0.1,0.3 0,0.1 -0.1,0.2 -0.2,0.2 -0.1,0.1 -0.4,0.2 -0.9,0.4 -0.5,0.2 -1.1,0.6 -2,1.1 -0.5,0.3 -0.9,0.6 -1.1,0.8 -0.3,0.2 -0.4,0.3 -0.5,0.4 -0.2,0.1 -0.3,0.1 -0.4,-0.1 -0.1,-0.1 -0.1,-0.2 0,-0.2 0,-0.1 0.1,-0.1 0.2,-0.2 0.2,-0.1 0.2,-0.3 0.3,-0.4 0,-0.1 0,-0.3 -0.2,-0.4 l -3.2,-5.1 c -0.1,-0.2 -0.2,-0.3 -0.3,-0.3 -0.1,0 -0.2,0 -0.4,0 -0.2,0.1 -0.3,0.1 -0.4,0.1 -0.1,0 -0.2,0 -0.2,-0.1 -0.1,-0.2 -0.1,-0.3 0.1,-0.4 0,0 0.2,-0.1 0.5,-0.3 0.3,-0.2 0.8,-0.4 1.3,-0.8 0.7,-0.4 1.2,-0.8 1.6,-1.1 0.4,-0.3 0.7,-0.5 0.8,-0.6 0.1,-0.1 0.2,-0.1 0.3,-0.1 0.1,0 0.1,0 0.2,0.1 z"
   id="path66" /><path
   class="st0"
   d="m 103.15,106.01547 c 0.1,0.1 0.1,0.3 0,0.3 -0.1,0.1 -0.2,0.1 -0.3,0 -0.1,-0.1 -0.3,-0.2 -0.5,-0.3 -0.3,-0.2 -0.6,-0.3 -0.9,-0.4 -0.2,0 -0.5,0 -0.8,0.3 -0.2,0.2 -0.4,0.5 -0.4,0.8 0,0.3 0.1,0.6 0.3,0.8 0.2,0.2 0.3,0.3 0.4,0.3 0.1,0.1 0.3,0.1 0.5,0.1 0.2,0 0.3,0 0.5,-0.1 0.2,-0.1 0.4,-0.1 0.6,-0.1 0.4,-0.1 0.7,-0.1 1,-0.1 0.3,0 0.6,0 0.9,0.1 0.3,0.1 0.5,0.2 0.7,0.3 0.2,0.1 0.5,0.3 0.7,0.6 0.3,0.3 0.5,0.7 0.6,1 0.1,0.4 0.2,0.7 0.1,1.1 0,0.4 -0.1,0.7 -0.3,1.1 -0.2,0.3 -0.4,0.6 -0.7,0.9 -0.2,0.1 -0.3,0.3 -0.5,0.4 -0.2,0.1 -0.3,0.2 -0.5,0.2 -0.2,0.1 -0.3,0.1 -0.4,0.1 -0.1,0 -0.2,0 -0.3,0 -0.1,0 -0.2,-0.1 -0.3,-0.1 -0.1,-0.1 -0.2,-0.2 -0.4,-0.4 l -0.7,-0.8 c -0.1,-0.1 -0.1,-0.3 0,-0.4 0.1,-0.1 0.2,-0.1 0.3,0.1 0.1,0.1 0.3,0.3 0.6,0.4 0.7,0.5 1.4,0.5 1.9,0.1 0.3,-0.3 0.5,-0.6 0.6,-1 0,-0.4 -0.1,-0.7 -0.3,-1 -0.1,-0.2 -0.3,-0.3 -0.5,-0.4 -0.2,-0.1 -0.3,-0.1 -0.5,-0.2 -0.2,0 -0.4,0 -0.6,0 -0.2,0 -0.5,0.1 -0.8,0.1 -0.3,0.1 -0.6,0.1 -0.9,0.1 -0.3,0 -0.5,0 -0.8,0 -0.2,-0.1 -0.5,-0.1 -0.7,-0.3 -0.2,-0.1 -0.4,-0.3 -0.6,-0.5 -0.2,-0.3 -0.4,-0.6 -0.5,-0.9 -0.1,-0.3 -0.1,-0.7 -0.1,-1 0,-0.3 0.1,-0.6 0.3,-1 0.2,-0.3 0.4,-0.6 0.6,-0.8 0.3,-0.2 0.5,-0.4 0.8,-0.5 0.3,-0.1 0.5,-0.2 0.6,-0.2 0.1,0 0.2,0 0.2,0.1 0.1,0 0.1,0.1 0.2,0.2 l 0.1,0.1 z"
   id="path68" /><path
   class="st0"
   d="m 26.75,94.91547 h -1.9 c 0,0 -0.5,-1.6 -0.6,-1.8 0,-0.1 -0.1,-0.1 -0.2,-0.1 -0.1,0 -0.1,0 -0.2,0.1 -0.1,0.2 -0.6,1.8 -0.6,1.8 h -1.9 c -0.2,0 -0.2,0.3 -0.1,0.3 0.1,0.1 1.5,1.1 1.5,1.1 0,0 -0.5,1.6 -0.6,1.8 0,0.2 0.1,0.3 0.3,0.2 0.1,-0.1 1.5,-1.1 1.5,-1.1 0,0 1.4,1 1.5,1.1 0.1,0.1 0.3,0 0.3,-0.2 -0.1,-0.2 -0.6,-1.8 -0.6,-1.8 0,0 1.4,-1 1.5,-1.1 0.3,0 0.3,-0.3 0.1,-0.3"
   id="path70" /><path
   class="st0"
   d="m 116.55,94.91547 h -1.9 c 0,0 -0.5,-1.6 -0.6,-1.8 0,-0.1 -0.1,-0.1 -0.2,-0.1 -0.1,0 -0.1,0 -0.2,0.1 -0.1,0.2 -0.6,1.8 -0.6,1.8 h -1.9 c -0.2,0 -0.2,0.3 -0.1,0.3 0.1,0.1 1.5,1.1 1.5,1.1 0,0 -0.5,1.6 -0.6,1.8 0,0.2 0.1,0.3 0.3,0.2 0.1,-0.1 1.5,-1.1 1.5,-1.1 0,0 1.4,1 1.5,1.1 0.1,0.1 0.3,0 0.3,-0.2 -0.1,-0.2 -0.6,-1.8 -0.6,-1.8 0,0 1.4,-1 1.5,-1.1 0.4,0 0.3,-0.3 0.1,-0.3"
   id="path72" /><path
   class="st0"
   d="m 112.25,68.71547 c 0,24.1 -19.5,43.6 -43.6,43.6 -24.1,0 -43.6,-19.5 -43.6,-43.6 0,-24.1 19.5,-43.6 43.6,-43.6 24.1,0 43.6,19.5 43.6,43.6"
   id="path74" /><g
   id="g142"
   transform="translate(-6.15,-4.5845299)">
		<defs
   id="defs77">
			<path
   id="SVGID_1_"
   d="m 31.3,73.3 c 0,24.1 19.5,43.6 43.6,43.6 24.1,0 43.6,-19.5 43.6,-43.6 0,-24.1 -19.6,-43.6 -43.6,-43.6 -24.1,0 -43.6,19.5 -43.6,43.6" />
		</defs>
		<clipPath
   id="SVGID_2_">
			<use
   xlink:href="#SVGID_1_"
   style="overflow:visible"
   id="use79"
   x="0"
   y="0"
   width="100%"
   height="100%" />
		</clipPath>
		<path
   class="st2"
   d="m 75.2,52.2 c 0,0 -0.2,-0.1 -0.2,-0.2 v -0.6 c 0,-0.2 -0.1,-0.3 -0.3,-0.3 h -0.3 c -0.2,0 -0.3,-0.2 -0.3,-0.3 v -1.3 c 0,-0.1 -0.1,-0.3 -0.3,-0.3 h -0.3 -0.3 c -0.2,0 -0.3,0.1 -0.3,0.3 v 1.3 c 0,0.1 -0.1,0.3 -0.3,0.3 h -0.3 c -0.1,0 -0.3,0.1 -0.3,0.3 V 52 c 0,0.1 -0.1,0.2 -0.2,0.2 -0.2,0.1 -0.4,0.3 -0.4,0.5 0,0.2 0.1,0.4 0.3,0.5 0.1,0 0.2,0.1 0.2,0.2 v 1.4 c 0,0.2 -0.3,0.1 -0.3,0 0,-1 -1.1,-1.5 -1.8,-1.2 -0.4,0.2 -0.8,0 -0.9,-0.1 -0.1,-0.1 0,-0.1 0,-0.2 0,0 0,0 0,0 0.5,-1.1 -0.1,-2.2 -0.5,-2.7 -0.4,-0.6 -1.1,-0.9 -1.9,-0.9 -0.6,0.1 -0.9,0.5 -1,0.7 -0.1,0.1 -0.2,0.1 -0.3,0 -0.5,-0.6 -0.6,-1.5 -0.2,-2.1 0.1,-0.1 0,-0.2 0,-0.2 0,0 -1,-1 -1.1,-1 0,0 -0.1,-0.1 -0.1,-0.2 v -5.3 c 0,-0.1 0.1,-0.3 0.3,-0.3 H 67 c 0.1,0 0.3,-0.1 0.3,-0.3 V 40.5 40 c 0,-0.1 -0.1,-0.3 -0.3,-0.3 h -2.2 c -0.1,0 -0.3,-0.1 -0.3,-0.3 V 37.3 C 64.5,37.2 64.4,37 64.2,37 h -0.5 -0.5 c -0.1,0 -0.3,0.1 -0.3,0.3 v 2.1 c 0,0.1 -0.1,0.3 -0.3,0.3 h -2.2 c -0.2,0 -0.3,0.1 -0.3,0.3 v 0.5 0.5 c 0,0.1 0.1,0.3 0.3,0.3 h 2.2 c 0.2,0 0.3,0.1 0.3,0.3 V 47 c 0,0.1 0,0.1 -0.1,0.2 0,0 -1.1,1 -1.1,1 0,0 -0.1,0.1 0,0.2 0.4,0.7 0.3,1.5 -0.2,2.1 -0.1,0.1 -0.2,0.1 -0.3,0 -0.1,-0.2 -0.4,-0.7 -1,-0.7 -0.7,-0.1 -1.4,0.3 -1.9,0.9 -0.4,0.5 -1,1.6 -0.5,2.7 0,0 0,0 0,0 0,0 0,0.1 0,0.2 -0.1,0.1 -0.5,0.3 -0.9,0.1 -0.7,-0.3 -1.8,0.1 -1.8,1.2 0,0.2 -0.2,0.2 -0.3,0 v -1.4 c 0,-0.1 0.1,-0.2 0.2,-0.2 0.2,-0.1 0.3,-0.3 0.3,-0.5 0,-0.2 -0.2,-0.4 -0.4,-0.5 0,0 -0.2,-0.1 -0.2,-0.2 v -0.6 c 0,-0.2 -0.1,-0.3 -0.3,-0.3 h -0.3 c -0.2,0 -0.3,-0.2 -0.3,-0.3 v -1.3 c 0,-0.1 -0.1,-0.3 -0.3,-0.3 h -0.3 -0.3 c -0.2,0 -0.3,0.1 -0.3,0.3 v 1.3 c 0,0.1 -0.1,0.3 -0.3,0.3 H 52 c -0.1,0 -0.3,0.1 -0.3,0.3 V 52 c 0,0.1 -0.1,0.2 -0.2,0.2 -0.2,0.1 -0.4,0.3 -0.4,0.5 0,0.2 0.1,0.4 0.3,0.5 0.1,0 0.2,0.1 0.2,0.2 v 2.9 c 0,0.1 0.1,0.1 0.1,0.1 h 1.2 1.3 3 1.8 3.7 c 0.1,0 0.2,-0.2 0.1,-0.2 -0.3,-0.2 -0.6,-0.5 -0.6,-0.9 0,-0.6 0.7,-1.1 1.6,-1.1 0.9,0 1.6,0.5 1.6,1.1 0,0.3 -0.2,0.6 -0.6,0.9 -0.1,0.1 -0.1,0.2 0.1,0.2 h 3.7 0.9 3 1.3 1.2 c 0.1,0 0.1,0 0.1,-0.1 v -2.9 c 0,-0.1 0.1,-0.2 0.2,-0.2 0.2,-0.1 0.3,-0.3 0.3,-0.5 0,-0.2 -0.2,-0.4 -0.4,-0.5"
   clip-path="url(#SVGID_2_)"
   id="path82" />
		<path
   class="st2"
   d="m 75.2,58.1 c 0,-0.3 0.1,-0.6 0.2,-0.9 0,-0.1 0,-0.2 -0.1,-0.2 H 63.8 52.2 c -0.1,0 -0.1,0.1 -0.1,0.2 0.1,0.3 0.2,0.6 0.2,0.9 0,0.3 -0.1,0.6 -0.2,0.9 0,0.1 0,0.2 0.1,0.2 h 11.6 11.6 c 0.1,0 0.1,-0.1 0.1,-0.2 -0.2,-0.3 -0.3,-0.6 -0.3,-0.9"
   clip-path="url(#SVGID_2_)"
   id="path84" />
		<path
   class="st2"
   d="M 85.1,51.6 H 83 c -0.2,0 -0.4,-0.1 -0.5,-0.4 -0.2,-0.6 -0.8,-1.3 -1.8,-1.3 -1.1,0 -1.7,0.8 -1.8,1.3 -0.1,0.2 -0.3,0.4 -0.5,0.4 h -2.2 c -0.1,0 -0.1,0.1 -0.1,0.1 v 5.9 c 0,0.1 0.1,0.1 0.1,0.1 0.1,0 2.8,0 2.9,0 0.1,0 0.1,-0.1 0.1,-0.1 V 53 c 0,-0.8 0.6,-1.4 1.4,-1.4 0.8,0 1.4,0.6 1.4,1.4 v 4.6 c 0,0.1 0,0.1 0.1,0.1 0.1,0 2.8,0 2.9,0 0.1,0 0.1,-0.1 0.1,-0.1 v -5.9 c 0.1,-0.1 0.1,-0.1 0,-0.1"
   clip-path="url(#SVGID_2_)"
   id="path86" />
		<path
   class="st2"
   d="m 85.9,49.4 c -0.3,0 -0.6,0 -0.9,0 0,0 -0.1,0 -0.1,-0.1 v -1.5 c 0,-0.1 -0.1,-0.3 -0.3,-0.3 H 84.3 84 c -0.2,0 -0.3,0.1 -0.3,0.3 v 1.1 c 0,0.1 -0.1,0.2 -0.2,0.1 -0.2,-0.1 -0.4,-0.2 -0.6,-0.4 -0.7,-0.5 -1.4,-0.9 -2.4,-0.9 -1,0 -1.8,0.4 -2.4,0.9 -0.2,0.2 -0.4,0.3 -0.6,0.4 -0.1,0 -0.2,0 -0.2,-0.1 v -1.1 c 0,-0.1 -0.1,-0.3 -0.3,-0.3 h -0.3 -0.3 c -0.2,0 -0.3,0.1 -0.3,0.3 v 1.5 c 0,0.1 -0.1,0.1 -0.1,0.1 -0.3,0 -0.6,0 -0.9,0 -0.2,0 -0.3,0.2 -0.3,0.3 0.1,0.4 0.3,1 0.9,1.4 0.3,0 1.5,0 2.2,0 0.2,0 0.2,-0.1 0.3,-0.2 0.2,-0.6 1,-1.5 2.2,-1.5 1.2,0 1.9,0.8 2.2,1.5 0,0.1 0.1,0.2 0.3,0.2 0.6,0 1.9,0 2.2,0 0.6,-0.4 0.9,-1 0.9,-1.4 0.2,-0.1 0.1,-0.3 -0.1,-0.3"
   clip-path="url(#SVGID_2_)"
   id="path88" />
		<path
   class="st2"
   d="m 73.9,59.8 h -0.8 c -0.2,0 -0.3,0.1 -0.3,0.3 v 0.6 0.6 c 0,0.1 0.1,0.3 0.3,0.3 h 0.8 c 0.1,0 0.3,-0.1 0.3,-0.3 v -0.6 -0.6 c 0,-0.2 -0.1,-0.3 -0.3,-0.3"
   clip-path="url(#SVGID_2_)"
   id="path90" />
		<path
   class="st2"
   d="m 71.5,59.8 h -0.8 c -0.2,0 -0.3,0.1 -0.3,0.3 v 0.6 0.6 c 0,0.1 0.1,0.3 0.3,0.3 h 0.8 c 0.1,0 0.3,-0.1 0.3,-0.3 v -0.6 -0.6 c -0.1,-0.2 -0.2,-0.3 -0.3,-0.3"
   clip-path="url(#SVGID_2_)"
   id="path92" />
		<path
   class="st2"
   d="m 69,59.8 h -0.8 c -0.2,0 -0.3,0.1 -0.3,0.3 v 0.6 0.6 c 0,0.1 0.1,0.3 0.3,0.3 H 69 c 0.1,0 0.3,-0.1 0.3,-0.3 v -0.6 -0.6 c 0,-0.2 -0.1,-0.3 -0.3,-0.3"
   clip-path="url(#SVGID_2_)"
   id="path94" />
		<path
   class="st2"
   d="m 66.6,59.8 h -0.8 c -0.2,0 -0.3,0.1 -0.3,0.3 v 0.6 0.6 c 0,0.1 0.1,0.3 0.3,0.3 h 0.8 c 0.1,0 0.3,-0.1 0.3,-0.3 v -0.6 -0.6 c 0,-0.2 -0.1,-0.3 -0.3,-0.3"
   clip-path="url(#SVGID_2_)"
   id="path96" />
		<path
   class="st2"
   d="m 64.2,59.8 h -0.8 c -0.2,0 -0.3,0.1 -0.3,0.3 v 0.6 0.6 c 0,0.1 0.1,0.3 0.3,0.3 h 0.8 c 0.1,0 0.3,-0.1 0.3,-0.3 v -0.6 -0.6 c -0.1,-0.2 -0.2,-0.3 -0.3,-0.3"
   clip-path="url(#SVGID_2_)"
   id="path98" />
		<path
   class="st2"
   d="m 61.7,59.8 h -0.8 c -0.2,0 -0.3,0.1 -0.3,0.3 v 0.6 0.6 c 0,0.1 0.1,0.3 0.3,0.3 h 0.8 c 0.1,0 0.3,-0.1 0.3,-0.3 v -0.6 -0.6 c 0,-0.2 -0.1,-0.3 -0.3,-0.3"
   clip-path="url(#SVGID_2_)"
   id="path100" />
		<path
   class="st2"
   d="m 59.3,59.8 h -0.8 c -0.2,0 -0.3,0.1 -0.3,0.3 v 0.6 0.6 c 0,0.1 0.1,0.3 0.3,0.3 h 0.8 c 0.1,0 0.3,-0.1 0.3,-0.3 v -0.6 -0.6 c 0,-0.2 -0.2,-0.3 -0.3,-0.3"
   clip-path="url(#SVGID_2_)"
   id="path102" />
		<path
   class="st2"
   d="m 56.9,59.8 h -0.8 c -0.2,0 -0.3,0.1 -0.3,0.3 v 0.6 0.6 c 0,0.1 0.1,0.3 0.3,0.3 h 0.8 c 0.1,0 0.3,-0.1 0.3,-0.3 V 60.7 60.1 C 57.1,59.9 57,59.8 56.9,59.8"
   clip-path="url(#SVGID_2_)"
   id="path104" />
		<path
   class="st2"
   d="m 54.4,59.8 h -0.8 c -0.2,0 -0.3,0.1 -0.3,0.3 v 0.6 0.6 c 0,0.1 0.1,0.3 0.3,0.3 h 0.8 c 0.1,0 0.3,-0.1 0.3,-0.3 v -0.6 -0.6 c 0,-0.2 -0.1,-0.3 -0.3,-0.3"
   clip-path="url(#SVGID_2_)"
   id="path106" />
		<path
   class="st2"
   d="m 51.2,66.9 h -0.8 c -0.2,0 -0.3,0.1 -0.3,0.3 v 0.6 0.6 c 0,0.1 0.1,0.3 0.3,0.3 h 0.8 c 0.1,0 0.3,-0.1 0.3,-0.3 v -0.6 -0.6 c 0,-0.2 -0.1,-0.3 -0.3,-0.3"
   clip-path="url(#SVGID_2_)"
   id="path108" />
		<path
   class="st2"
   d="M 48.8,66.9 H 48 c -0.2,0 -0.3,0.1 -0.3,0.3 v 0.6 0.6 c 0,0.1 0.1,0.3 0.3,0.3 h 0.8 c 0.1,0 0.3,-0.1 0.3,-0.3 V 67.8 67.2 C 49,67 48.9,66.9 48.8,66.9"
   clip-path="url(#SVGID_2_)"
   id="path110" />
		<path
   class="st2"
   d="m 46.3,66.9 h -0.8 c -0.2,0 -0.3,0.1 -0.3,0.3 v 0.6 0.6 c 0,0.1 0.1,0.3 0.3,0.3 h 0.8 c 0.1,0 0.3,-0.1 0.3,-0.3 v -0.6 -0.6 c 0,-0.2 -0.1,-0.3 -0.3,-0.3"
   clip-path="url(#SVGID_2_)"
   id="path112" />
		<path
   class="st2"
   d="m 76.2,58.4 c -0.1,0 -0.1,0.1 -0.1,0.1 v 1 c 0,0 0,0.3 -0.3,0.3 h -0.3 c -0.2,0 -0.3,0.1 -0.3,0.3 v 0.6 0.6 c 0,0.1 0.1,0.3 0.2,0.3 h 0.3 c 0.3,0 0.3,0.3 0.3,0.3 v 0.9 c 0,0.1 0.1,0.1 0.1,0.1 H 85 c 0.1,0 0.1,-0.1 0.1,-0.1 v -2.9 c 0.6,-0.2 0.9,-0.7 1,-1 0.1,-0.2 0,-0.5 -0.3,-0.5 z"
   clip-path="url(#SVGID_2_)"
   id="path114" />
		<path
   class="st2"
   d="m 51.5,66.1 v -6 c 0,-0.1 -0.2,-0.2 -0.2,-0.1 -0.5,1.8 -1.8,6 -1.8,6 0,0.1 0,0.2 0.1,0.2 h 1.8 c 0.1,0 0.1,-0.1 0.1,-0.1"
   clip-path="url(#SVGID_2_)"
   id="path116" />
		<path
   class="st2"
   d="m 72.3,71.5 c 0,0 0,0.1 -0.1,0.1 h -3.6 c -0.1,0 -0.1,-0.1 -0.1,-0.1 v -4.1 c 0,-1.1 0.9,-1.9 1.9,-1.9 1.1,0 1.9,0.9 1.9,1.9 z m -6.6,0 c 0,0 0,0.1 -0.1,0.1 H 62 c -0.1,0 -0.1,-0.1 -0.1,-0.1 v -4.1 c 0,-1.1 0.9,-1.9 1.9,-1.9 1.1,0 1.9,0.9 1.9,1.9 z m -6.6,0 c 0,0 0,0.1 -0.1,0.1 h -3.6 c -0.1,0 -0.1,-0.1 -0.1,-0.1 v -4.1 c 0,-1.1 0.9,-1.9 1.9,-1.9 1.1,0 1.9,0.9 1.9,1.9 z M 74.9,62.2 H 52.6 c -0.1,0 -0.1,0.1 -0.1,0.1 v 12.3 c 0,0 0,0.1 0.1,0.1 H 74.9 C 75,74.7 75,74.6 75,74.6 V 62.4 c 0,0 0,-0.2 -0.1,-0.2"
   clip-path="url(#SVGID_2_)"
   id="path118" />
		<path
   class="st2"
   d="m 83.7,82.6 c 0,0 0,0 0,0 0,0 0,0 0,0 0,0 0,0 0,0 0,0 0,0 0,0"
   clip-path="url(#SVGID_2_)"
   id="path120" />
		<path
   class="st2"
   d="M 83.8,82.5 Z"
   clip-path="url(#SVGID_2_)"
   id="path122" />
		<path
   class="st2"
   d="m 83,83 v 0 c 0.3,-0.2 0.5,-0.3 0.6,-0.3 -0.1,0 -0.3,0.1 -0.6,0.3"
   clip-path="url(#SVGID_2_)"
   id="path124" />
		<path
   class="st2"
   d="m 76.2,83 h 5.5 c 0,0 0.1,0 0.1,0 0.5,-0.3 1,-0.6 1.3,-0.7 0.1,0 0.1,-0.1 0.1,-0.1 v -0.3 c 0,0 0,-0.1 -0.1,-0.1 h -6.8 c -0.1,0 -0.1,0.1 -0.1,0.1 v 1 c -0.1,0 -0.1,0.1 0,0.1"
   clip-path="url(#SVGID_2_)"
   id="path126" />
		<path
   class="st2"
   d="m 76.2,85.3 h 1.4 c 0,0 0.1,0 0.1,0 0.6,-0.4 1.2,-0.7 1.8,-1 0.1,-0.1 0.1,-0.2 -0.1,-0.2 h -3.2 c -0.1,0 -0.1,0.1 -0.1,0.1 v 1 c 0,0 0,0.1 0.1,0.1"
   clip-path="url(#SVGID_2_)"
   id="path128" />
		<path
   class="st2"
   d="m 32.8,95.3 c 1.4,-2.7 3.6,-4.9 6.2,-6.6 2.8,-1.8 6.1,-2.7 9.4,-2.7 1,0 2.1,0.1 3.1,0.3 V 69.6 c 0,0 0,-0.3 -0.3,-0.3 h -6.8 c 0,0 -0.3,0 -0.3,-0.3 v -2.6 c 0,-0.1 0.1,-0.1 0.1,-0.1 0.2,-0.1 0.4,-0.3 0.4,-0.5 0,-0.2 -0.2,-0.4 -0.4,-0.5 0,0 -0.1,0 -0.1,-0.1 v -0.4 c 0,-0.1 -0.1,-0.3 -0.3,-0.3 H 43.4 43 c -0.1,0 -0.3,0.1 -0.3,0.3 v 0.4 c 0,0.1 -0.1,0.1 -0.1,0.1 -0.2,0.1 -0.4,0.3 -0.4,0.5 0,0.2 0.2,0.4 0.4,0.5 0,0 0.1,0 0.1,0.1 v 2.1 0 c -0.7,0.3 -1.2,1 -1.2,1.8 v 10 c 0,0 -4.7,3.5 -4.8,3.6 -0.1,0.1 -0.2,0 -0.2,-0.1 v -2 c 0,-0.1 -0.1,-0.3 -0.3,-0.3 H 36 35.6 c -0.1,0 -0.3,0.1 -0.3,0.3 V 85 c 0,0.1 -0.1,0.1 -0.1,0.1 l -4.5,3.3 c 0,0 -0.1,0 -0.1,0.1 v 4.8 1.9 h 2.2 z"
   clip-path="url(#SVGID_2_)"
   id="path130" />
		<path
   class="st2"
   d="M 49.9,92.9 H 51 c 0.1,0 0.1,0 0.1,0 0,0 0.3,-0.2 0.3,-0.3 0,0 0.1,0 0.1,-0.1 0,-0.1 0,-5.6 0,-5.6 h -0.1 c -1,-0.2 -2,-0.3 -3,-0.3 -6.2,0 -11.8,3.3 -14.9,8.7 h 12.1 c 0,0 0.1,0 0.1,-0.1 0,-1.2 0.1,-2.3 0.1,-2.3 0,-0.2 0.1,-0.4 0.2,-0.5 L 46.3,92 c 0,0 0,0 0,-0.1 0,-0.2 0,-0.4 0,-0.5 0,-0.3 0.1,-0.4 0.2,-0.5 l 0.6,-0.7 c 0.1,-0.1 0.3,-0.3 0.6,-0.3 0.3,0 0.5,0.2 0.6,0.3 l 0.6,0.7 c 0.1,0.1 0.2,0.3 0.2,0.5 0,0.1 0,0.3 0,0.5 0,0.1 0,0.1 0,0.1 l 0.3,0.4 c 0.1,0.1 0.1,0.2 0.2,0.4 0.1,0.1 0.2,0.1 0.3,0.1"
   clip-path="url(#SVGID_2_)"
   id="path132" />
		<path
   class="st2"
   d="m 53.4,91.1 c 0,0 0.3,-0.3 0.6,-0.3 0.3,0 0.6,0.3 0.6,0.3 l 2.3,1.8 c 0,0 0,0 0.1,0 h 1.1 c 0.1,0 0.1,-0.1 0.1,-0.1 0,-0.2 0.1,-0.4 0.2,-0.4 L 58.7,92 c 0,0 0,0 0,-0.1 0,-0.2 0,-0.4 0,-0.5 0,-0.3 0.1,-0.4 0.2,-0.5 l 0.6,-0.7 c 0.1,-0.1 0.3,-0.3 0.6,-0.3 0.3,0 0.5,0.2 0.6,0.3 l 0.6,0.7 c 0.1,0.1 0.2,0.3 0.2,0.5 0,0.1 0,0.4 0,0.5 0,0.1 0,0.1 0,0.1 l 0.3,0.4 c 0.1,0.1 0.2,0.2 0.2,0.5 0,0 0,0.4 0,1.2 0,0.1 0.1,0.1 0.1,0.1 h 4.1 c 0.1,0 0.1,-0.1 0.1,-0.1 l 2.3,-3.7 c 0,-0.1 0.1,-0.2 0.3,-0.3 0,0 2.8,-1.6 5.9,-3.3 0.1,0 0.1,-0.1 0.1,-0.1 V 75.9 c 0,0 0,-0.1 -0.1,-0.1 H 52.6 c -0.1,0 -0.1,0.1 -0.1,0.1 v 15.5 c 0,0.1 0.1,0.2 0.2,0.1 0,0.1 0.7,-0.4 0.7,-0.4"
   clip-path="url(#SVGID_2_)"
   id="path134" />
		<path
   class="st2"
   d="m 86.8,76.8 c 0,0 0,0.1 -0.1,0.1 h -2.8 c -0.1,0 -0.1,-0.1 -0.1,-0.1 V 74 c 0,0 0,-0.1 0.1,-0.1 h 2.8 c 0.1,0 0.1,0.1 0.1,0.1 z m 26.3,-0.4 h -0.9 c -0.1,-0.3 -0.5,-0.5 -0.8,-0.5 -0.3,0 -0.5,0.1 -0.7,0.4 -0.2,-0.2 -0.4,-0.4 -0.7,-0.4 -0.3,0 -0.5,0.1 -0.7,0.4 -0.2,-0.2 -0.4,-0.4 -0.7,-0.4 -0.3,0 -0.5,0.1 -0.7,0.4 -0.2,-0.2 -0.4,-0.4 -0.7,-0.4 -0.3,0 -0.5,0.1 -0.7,0.4 -0.2,-0.2 -0.4,-0.4 -0.7,-0.4 -0.3,0 -0.5,0.1 -0.7,0.4 -0.2,-0.2 -0.4,-0.4 -0.7,-0.4 -0.3,0 -0.5,0.1 -0.7,0.4 -0.2,-0.2 -0.4,-0.4 -0.7,-0.4 -0.3,0 -0.5,0.1 -0.7,0.4 -0.2,-0.2 -0.4,-0.4 -0.7,-0.4 -0.3,0 -0.5,0.1 -0.7,0.4 -0.2,-0.2 -0.4,-0.4 -0.7,-0.4 -0.3,0 -0.5,0.1 -0.7,0.4 -0.2,-0.2 -0.4,-0.4 -0.7,-0.4 -0.3,0 -0.5,0.1 -0.7,0.4 -0.2,-0.2 -0.4,-0.4 -0.7,-0.4 -0.2,0 -0.4,0.1 -0.6,0.2 V 70 c 0,-0.4 0.3,-0.8 0.7,-0.9 0,0 0.1,0 0.1,-0.1 0,-0.2 -0.1,-0.4 -0.3,-0.6 -0.4,-0.4 -0.8,-0.3 -1,-0.2 -0.1,0 -0.1,0 -0.1,0 l -8.4,-4.3 c 0,0 -0.3,-0.1 -0.6,-0.1 h -11 c -0.1,0 -0.1,0.1 -0.1,0.1 v 16.8 c 0,0 0,0.1 0.1,0.1 h 0.9 c 0.1,0 0.1,-0.1 0.1,-0.1 V 74 c 0,-0.1 0.1,-0.1 0.1,-0.1 h 4.1 c 0.1,0 0.1,0.1 0.1,0.1 v 6.5 c 0,0 0,0.1 0.1,0.1 H 83 c 0.1,0 0.1,-0.1 0.1,-0.1 v -0.8 c 0,-0.5 0.4,-0.8 0.8,-0.8 h 1.5 c 0.4,0 0.7,0.3 0.8,0.7 v 0 0 2 c 0,0.1 0.1,0.1 0.1,0.1 3.1,0 6.8,0.3 10.1,0.8 2.9,0.4 6.6,1.1 8.2,2.2 v 0 0 c 0.3,0.2 0.3,0.5 0.3,0.5 v 0 0 c 0,0 0,0 0,0.1 0,0.1 0,0.1 0.1,0.1 0.2,0 0.4,0.1 0.5,0.2 v 0 0 c 1.6,1.8 3.7,4.2 4.1,4.7 0.1,0.2 0.2,0.4 0.2,0.6 v 13.4 0.4 l -0.4,0.1 -1.6,0.5 3.3,2.1 h 1.2 c 0,0 0,-29.8 0,-30 0.4,-0.2 0.9,-0.6 1,-1 0.2,0.2 0.1,0 -0.2,0"
   clip-path="url(#SVGID_2_)"
   id="path136" />
		<path
   class="st2"
   d="m 51.8,100.9 v -6.1 c 0,-0.1 0.1,-0.1 0.1,-0.1 H 56 c 0.1,0 0.1,0.1 0.1,0.1 v 5.5 c 5.1,-0.7 9.4,-1.3 11.6,-1.7 8.5,-1.4 23.5,-4.9 34.1,1.2 0.8,0.5 1.6,0.9 2.4,1.4 V 85.5 c 0,0 0,-0.1 -0.1,-0.1 -2.6,-1.8 -12.4,-2.9 -18.6,-2.9 -0.1,0 -0.1,-0.1 -0.1,-0.1 v -2.7 c 0,0 0,-0.1 -0.1,-0.1 h -1.5 c 0,0 -0.1,0 -0.1,0.1 v 2.8 c 0,0.1 0,0.1 -0.1,0.1 -1.1,0.6 -14.2,8 -14.3,8 -0.1,0 -0.1,0.1 -0.1,0.1 l -2.5,3.9 c 0,0 0,0.1 -0.1,0.1 h -5 c 0,0 -0.1,0 -0.1,-0.1 0,-0.8 -0.1,-1.7 -0.1,-1.8 0,-0.1 0,-0.1 0,-0.1 L 61,92.1 c 0,0 0,0 0,-0.1 0,0 0,-0.5 0,-0.7 0,-0.1 0,-0.1 0,-0.1 l -0.6,-0.7 c 0,0 0,-0.1 -0.1,-0.1 -0.1,0 -0.1,0.1 -0.1,0.1 l -0.6,0.7 c 0,0 0,0 0,0.1 0,0.2 0,0.7 0,0.7 0,0.1 0,0.1 0,0.1 l -0.5,0.6 c 0,0 0,0 0,0.1 0,0 0,0.2 0,0.5 0,0.1 -0.1,0.1 -0.1,0.1 h -1.9 c -0.1,0 -0.1,0 -0.1,0 l -2.6,-2 c 0,0 0,0 -0.1,0 0,0 -0.1,0 -0.1,0 l -2.6,2 c 0,0 -0.1,0 -0.1,0 h -1.9 c 0,0 -0.1,0 -0.1,-0.1 0,-0.3 0,-0.5 0,-0.5 0,-0.1 0,-0.1 0,-0.1 L 49,92.1 c 0,0 0,0 0,-0.1 0,0 0,-0.5 0,-0.7 0,-0.1 0,-0.1 0,-0.1 l -0.6,-0.7 c 0,0 0,-0.1 -0.1,-0.1 -0.1,0 -0.1,0.1 -0.1,0.1 l -0.6,0.7 c 0,0 0,0 0,0.1 0,0.2 0,0.7 0,0.7 0,0.1 0,0.1 0,0.1 l -0.5,0.6 c 0,0 0,0 0,0.1 0,0 -0.1,2.3 -0.1,2.9 0,0.1 -0.1,0.1 -0.1,0.1 H 21.3 c 0,0 -0.1,0 -0.1,0.1 v 9.1 c 2.9,-0.3 18.1,-2.3 30.6,-4.1"
   clip-path="url(#SVGID_2_)"
   id="path138" />
		<path
   class="st2"
   d="m 109.3,104.7 v 0 -13.5 c 0,0 0,-0.1 -0.1,-0.2 -0.4,-0.4 -2.5,-2.9 -4.1,-4.7 -0.1,-0.1 -0.2,0 -0.2,0.1 v 15.1 c 1.6,1.1 3.1,2.1 4.4,3.2"
   clip-path="url(#SVGID_2_)"
   id="path140" />
	</g><path
   class="st0"
   d="m 68.65,112.41547 c -24.3,0 -44,-19.6 -44,-43.7 0,-24.1 19.7,-43.7 44,-43.7 24.3,0 44,19.6 44,43.7 0.1,24.1 -19.7,43.7 -44,43.7 m 0,-86.6 c -23.8,0 -43.2,19.2 -43.2,42.9 0,23.6 19.4,42.9 43.2,42.9 23.8,0 43.2,-19.2 43.2,-42.9 0.1,-23.6 -19.3,-42.9 -43.2,-42.9"
   id="path144" /><path
   class="st3"
   d="m 61.35,98.21547 c 0,0 0.2,0 0.4,0 h 0.2 0.4 c 0,0.1 0,0.2 0,0.3 0,0 0,0.1 0,0.2 0,0.1 0,0.3 0,0.6 v 0.9 0.6 4 0.3 c 0,0.1 0,0.2 0.1,0.3 0.1,0.1 0.2,0.1 0.4,0.1 0.1,0 0.3,0 0.6,0.1 0,0 0,0.1 0,0.1 0,0 0,0.1 0,0.3 h -0.3 c -0.2,0 -0.4,0 -0.8,0 -0.2,0 -0.3,0 -0.4,0 -0.1,0 -0.4,0 -1,0 -0.1,0 -0.1,0 -0.2,0 h -0.1 -0.2 -0.2 -0.3 c 0,0 -0.1,0 -0.2,0 0,-0.1 0,-0.2 0,-0.2 0,0 0,-0.1 0,-0.2 0.2,0 0.3,-0.1 0.5,-0.1 0.3,-0.1 0.5,-0.1 0.5,-0.2 0.1,-0.1 0.1,-0.1 0.1,-0.2 v -0.4 -0.4 -0.9 -0.2 c 0,0 0,-0.1 0,-0.4 0,-0.1 0,-0.2 0,-0.3 0,-0.1 0,-0.2 0,-0.5 v -0.3 c 0,-0.3 0,-0.4 0,-0.5 0,-0.1 0,-0.1 0,-0.2 v -0.1 -0.4 -0.2 c 0,-0.1 0,-0.2 0,-0.3 0,-0.1 0,-0.3 0,-0.5 -0.3,0.2 -0.6,0.4 -1,0.6 0,0 -0.2,0.1 -0.5,0.2 -0.1,-0.2 -0.2,-0.3 -0.2,-0.4 0.4,-0.2 0.7,-0.4 0.8,-0.5 0.2,-0.2 0.5,-0.4 0.8,-0.6 0.3,-0.1 0.4,-0.3 0.6,-0.6"
   id="path146" /><path
   class="st3"
   d="m 64.55,106.11547 c -0.1,-0.1 -0.1,-0.1 -0.1,-0.2 0,-0.1 0,-0.1 0.1,-0.2 0,0 0.1,-0.1 0.3,-0.2 0.4,-0.2 0.8,-0.3 1.1,-0.6 0.3,-0.2 0.5,-0.5 0.7,-0.8 0.2,-0.3 0.3,-0.7 0.4,-1 0.1,-0.4 0.1,-0.7 0.1,-0.9 0,-0.1 0,-0.2 0.1,-0.5 0,-0.2 0,-0.4 0,-0.7 0,-1 -0.1,-1.7 -0.4,-2 -0.2,-0.3 -0.4,-0.4 -0.7,-0.4 -0.3,0 -0.5,0.1 -0.6,0.4 -0.2,0.3 -0.4,0.8 -0.4,1.4 0,0.4 0,0.7 0.1,1 0,0.2 0.1,0.4 0.2,0.6 0.1,0.1 0.1,0.2 0.2,0.2 0.2,0.1 0.3,0.1 0.5,0.1 0.1,0 0.2,0 0.3,0 h 0.1 c 0,0 0.1,0 0.1,0.1 0,0 0.1,0.1 0.1,0.2 0,0.1 -0.1,0.2 -0.2,0.3 -0.2,0.1 -0.5,0.1 -0.8,0.1 -0.2,0 -0.3,0 -0.3,0 -0.4,-0.1 -0.6,-0.2 -0.7,-0.3 -0.2,-0.2 -0.4,-0.3 -0.5,-0.5 -0.1,-0.2 -0.2,-0.4 -0.3,-0.6 -0.1,-0.3 -0.1,-0.6 -0.1,-0.9 0,-0.5 0.1,-0.9 0.3,-1.3 0.2,-0.4 0.5,-0.7 0.9,-0.9 0.4,-0.2 0.8,-0.3 1.2,-0.3 0.7,0 1.4,0.3 1.9,0.8 0.5,0.6 0.7,1.4 0.7,2.5 0,0.5 -0.1,1.1 -0.3,1.7 -0.1,0.1 -0.2,0.4 -0.4,0.8 -0.2,0.4 -0.5,0.8 -0.9,1.1 -0.4,0.3 -0.8,0.6 -1.3,0.7 -0.4,0.2 -0.8,0.2 -1.1,0.2 -0.2,0.1 -0.2,0.1 -0.3,0.1"
   id="path148" /><path
   class="st3"
   d="m 69.45,98.41547 c 0.2,0 0.4,0 0.7,0 h 1.4 1.2 0.7 0.2 c 0.1,0 0.1,0 0.2,0 0,0.1 0,0.3 0,0.4 0,0.1 -0.1,0.4 -0.2,0.8 -0.1,0.3 -0.2,0.6 -0.3,0.9 -0.1,0.3 -0.2,0.5 -0.2,0.6 -0.1,0.3 -0.2,0.5 -0.3,0.7 -0.1,0.2 -0.1,0.4 -0.2,0.6 l -0.3,0.8 c 0,0.1 -0.1,0.4 -0.3,0.8 l -0.5,1.3 c 0,0.1 -0.1,0.2 -0.1,0.2 0,0.1 0,0.1 0.1,0.2 0.1,0.1 0.1,0.1 0.1,0.2 0,0.1 0,0.2 -0.1,0.2 h -0.2 -0.4 c 0,0 -0.1,0 -0.2,0 -0.1,0 -0.2,0 -0.3,0 -0.1,0 -0.1,0 -0.2,0 0,-0.1 0.1,-0.3 0.2,-0.6 0.1,-0.2 0.3,-0.7 0.6,-1.4 l 1,-2.7 0.3,-0.7 c 0.1,-0.1 0.1,-0.3 0.2,-0.4 0,-0.1 0.1,-0.2 0.1,-0.3 -0.4,0 -0.7,0 -0.9,0 h -0.9 -0.7 c -0.2,0 -0.4,0 -0.4,0.1 -0.1,0.1 -0.1,0.2 -0.2,0.3 0,0.2 -0.1,0.3 -0.1,0.3 0,0 -0.1,0.1 -0.3,0.1 -0.1,0 -0.1,0 -0.2,-0.1 0,0 -0.1,-0.1 -0.1,-0.2 0,-0.2 0,-0.5 0.1,-0.9 0,-0.2 0.1,-0.4 0.1,-0.6 0.4,-0.3 0.4,-0.4 0.4,-0.6"
   id="path150" /><path
   class="st3"
   d="m 76.35,102.11547 c 0,-0.1 0,-0.1 0,-0.2 0,0 0,-0.1 0,-0.2 0,0 0.1,0 0.2,-0.1 0.3,-0.1 0.5,-0.2 0.8,-0.2 0.5,0 1,0.2 1.3,0.6 0.4,0.4 0.5,0.9 0.5,1.6 0,0.7 -0.2,1.3 -0.7,1.8 -0.4,0.4 -1.1,0.7 -1.8,0.7 -0.3,0 -0.7,-0.1 -0.9,-0.2 -0.3,-0.1 -0.5,-0.3 -0.7,-0.6 -0.2,-0.3 -0.4,-0.5 -0.5,-0.8 -0.2,-0.5 -0.3,-1 -0.3,-1.5 0,-0.5 0.1,-1 0.2,-1.5 0.2,-0.5 0.4,-1 0.7,-1.4 0.3,-0.4 0.7,-0.7 1.1,-1 0.4,-0.3 0.8,-0.4 1.1,-0.6 0.6,-0.2 1.1,-0.3 1.4,-0.3 0.1,0 0.1,0 0.1,0.1 0,0 0.1,0.1 0.1,0.2 0,0.1 0,0.2 0,0.2 -0.1,0 -0.2,0.1 -0.5,0.1 -0.5,0.1 -0.9,0.3 -1.3,0.6 -0.4,0.3 -0.6,0.6 -0.8,0.9 -0.2,0.4 -0.4,0.9 -0.5,1.4 -0.1,0.5 -0.1,1.1 -0.1,1.6 0,0.6 0,1.1 0.1,1.4 0.1,0.4 0.2,0.6 0.4,0.8 0.1,0.1 0.3,0.2 0.5,0.2 0.1,0 0.2,0 0.3,-0.1 0.2,-0.1 0.3,-0.2 0.4,-0.3 0.1,-0.2 0.2,-0.4 0.3,-0.7 0,-0.3 0.1,-0.5 0.1,-0.8 0,-0.7 -0.1,-1.2 -0.3,-1.5 -0.2,-0.3 -0.4,-0.4 -0.7,-0.4 -0.1,0.1 -0.3,0.1 -0.5,0.2"
   id="path152" />
</svg>
